<?xml version="1.0" encoding="UTF-8"?>
<!-- Created with Inkscape (http://www.inkscape.org/) -->
<svg width="793.71" height="415.75" version="1.1" viewBox="0 0 793.71 415.75" xml:space="preserve" xmlns="http://www.w3.org/2000/svg"><defs><clipPath id="clipPath25695"><path d="m0 0h595.28v311.81h-595.28z"/></clipPath><clipPath id="clipPath25705"><path d="m53.943 56.693h487.39v201.18h-487.39z"/></clipPath></defs><g transform="matrix(1.3333 0 0 -1.3333 0 415.75)"><g clip-path="url(#clipPath25695)"><path d="m0 311.81h596v-312h-596z" fill="#fff"/></g><g clip-path="url(#clipPath25705)"><g transform="translate(56.693 244.94)"><g transform="scale(1,-1)" aria-label="今回も無事に、 "><path d="m10.415-4.8501q-1.2139-0.51025-2.6211-1.5361-1.4019-1.0312-2.3364-2.1592-0.80029 1.0903-2.2827 2.2021-1.4771 1.1118-2.7124 1.6382l-0.34912-0.60693q1.0957-0.47266 2.605-1.6167 1.5146-1.144 2.1431-2.1646h1.1548q0.83252 1.0796 2.2559 2.127 1.4287 1.042 2.6265 1.5093zm-7.6968-0.44043v-0.6499h5.6074v0.6499zm2.7017 6.0049-0.42432-0.59619q0.93457-0.39746 2.0142-1.3374 1.0796-0.93994 1.5093-2.0303h-7.2832v-0.6499h8.2607l0.13428 0.15576q-0.41357 1.4878-1.6973 2.7339-1.2783 1.2407-2.5137 1.7241z"/><path d="m20.303-0.010742h-7.6968v0.58545h-0.79492v-9.1201h9.3135v9.0771h-0.82178zm-7.6968-0.6499h7.6968v-7.2349h-7.6968zm1.6382-1.5684v-4.1196h4.3076v4.1196zm3.4805-3.4912h-2.6587v2.8252h2.6587z"/><path d="m29.702-3.6953h-3.7383q-0.25781 1.52-0.25781 2.0142 0 1.3857 2.519 1.3857 3.083 0 3.083-1.5952 0-1.1763-0.61768-2.2881l0.68213-0.23096q0.7627 1.3267 0.7627 2.6157 0 2.2344-3.9102 2.2344-3.3408 0-3.3408-2.1646 0-0.61768 0.20947-1.9712h-2.1592v-0.71436h2.2827q0.11816-0.6875 0.39209-1.9497h-2.605v-0.7251h2.7661q0.11279-0.51562 0.37598-1.5522l0.85938 0.053711-0.35449 1.4985h4.8555v0.7251h-5.022q-0.22559 1.0098-0.39746 1.9497h3.6147z"/><path d="m34.789-2.8306v-1.9658h-1.2891v-0.63916h1.2891v-1.5576q-0.60693 0.62305-1.144 0.97754l-0.46191-0.4834q0.66064-0.45654 1.3428-1.2837 0.68213-0.82715 0.94531-1.3857l0.84326 0.14502q-0.18799 0.38672-0.70898 1.0742h7.6216v0.63916h-1.0205v1.8745h1.3911v0.63916h-1.3911v1.9658h1.1226v0.66064h-9.6304v-0.66064zm0.81641-4.4795v1.8745h1.3696v-1.8745zm2.1807 0v1.8745h1.3696v-1.8745zm2.1646 1.8745h1.4233v-1.8745h-1.4233zm-4.3452 0.63916v1.9658h1.3696v-1.9658zm2.1807 1.9658h1.3696v-1.9658h-1.3696zm2.1646 0h1.4233v-1.9658h-1.4233zm2.793 3.3408q-0.57471-1.1279-1.3105-2.1323l0.80566-0.2793q0.4834 0.66064 1.3804 2.1538zm-3.1099-0.010742q-0.18799-0.58545-0.75195-2.0732l0.81104-0.18262q0.58008 1.3267 0.82715 2.0679zm-5.4731 0.19336-0.77344-0.32764q0.29541-0.32764 0.68213-0.98291 0.39209-0.66064 0.58545-1.1279l0.81641 0.19336q-0.17725 0.46191-0.62842 1.2354-0.45117 0.77344-0.68213 1.0098zm2.7285-0.13428-0.53174-2.1001 0.83252-0.14502q0.29541 0.88086 0.58545 2.1216z"/><path d="m44.988-1.2139v-0.59619h3.9854v-0.87549h-4.5439v-0.60693h4.5439v-0.80566h-3.8726v-0.56396h3.8726v-0.77344h-3.5449v-1.8262h3.5449v-0.70898h-4.4204v-0.60693h4.4204v-0.59082h0.84863v0.59082h4.6943v0.60693h-4.6943v0.70898h3.7061v1.8262h-3.7061v0.77344h4.0659v1.3696h0.74121v0.60693h-0.74121v1.4717h-4.0659v1.0635q0 0.37598-0.30078 0.59619-0.29541 0.22559-0.74121 0.22559h-1.5898l-0.09131-0.74121h1.3589q0.21484 0 0.36523-0.12354 0.15039-0.12354 0.15039-0.29541v-0.7251zm7.7559-5.5215h-2.9219v0.80566h2.9219zm-3.7705 0h-2.7822v0.80566h2.7822zm4.0928 3.4429v-0.80566h-3.2441v0.80566zm-3.2441 1.4824h3.2441v-0.87549h-3.2441z"/><path d="m57.664 0.10742-0.76807 0.17725q-0.55322-1.7671-0.55322-3.835 0-2.2559 0.73584-4.8662l0.82715 0.14502q-0.74121 2.4438-0.74121 4.7642 0 1.9067 0.49951 3.6147zm7.2725-7.0952q-0.854-0.016113-1.6113-0.016113-1.1118 0-4.0229 0.15039 0-0.2417-0.03223-0.7251 2.7661-0.16113 4.4956-0.16113 0.85938 0 1.144 0.016113v0.04834q0 0.24707 0.02685 0.6875zm0.06445 6.832q-1.1226 0.11816-2.1968 0.11816-1.4932 0-2.2344-0.17188-0.73584-0.17725-1.1172-0.58008-0.38135-0.40283-0.38135-1.0366 0-0.92383 0.80566-1.9497l0.62305 0.33301q-0.66064 0.7251-0.66064 1.5684 0 0.41895 0.35449 0.67676 0.35986 0.25781 0.95605 0.34375 0.60156 0.080566 1.7026 0.080566 1.1172 0 2.1484-0.12891z"/><path d="m69.287 0.053711-0.73584 0.47266q-0.69824-1.1494-1.6704-2.2881l0.62842-0.44043q1.1763 1.3911 1.7778 2.2559z"/></g></g><g transform="translate(56.693 227.94)"><g transform="scale(1,-1)" aria-label="……はい。ゴール。 "><path d="m2.4224-3.2495h-1.0635v-1.1978h1.0635zm3.6201 0h-1.0635v-1.1978h1.0635zm3.6953 0h-1.0635v-1.1978h1.0635z"/><path d="m13.422-3.2495h-1.0635v-1.1978h1.0635zm3.6201 0h-1.0635v-1.1978h1.0635zm3.6953 0h-1.0635v-1.1978h1.0635z"/><path d="m32.748-0.97754-0.4834 0.66064q-0.521-0.47266-1.8584-1.332v0.32764q0 0.81641-0.54248 1.2246-0.53711 0.40283-1.8315 0.40283-0.87549 0-1.5039-0.42432-0.62305-0.42432-0.62305-1.1387 0-0.73047 0.59619-1.1816 0.59619-0.45654 1.4395-0.45654 0.82715 0 1.6113 0.19873v-3.1743h-3.7759v-0.7251h3.7759v-1.9712h0.84326v1.9712h2.0034v0.7251h-2.0034v3.4697q1.2515 0.50488 2.3525 1.4233zm-3.1475-0.34375v-0.6499q-0.64453-0.27393-1.6436-0.27393-0.55859 0.00537-0.91846 0.25781-0.35449 0.24707-0.35449 0.6875 0 0.43506 0.41357 0.68213 0.41357 0.2417 0.98291 0.2417 1.52 0 1.52-0.94531zm-5.0811 1.4287-0.80029 0.17725q-0.54785-1.7671-0.54785-3.835 0-2.2559 0.73584-4.8662l0.82178 0.14502q-0.73584 2.4277-0.73584 4.6299 0 1.9443 0.52637 3.749z"/><path d="m38.414-2.8359q-0.18262 0.51025-0.58008 1.2461-0.39209 0.73584-0.80566 1.23-0.4082 0.48877-0.84863 0.48877-0.26855 0-0.47803-0.12891t-0.54785-0.49951q-0.33838-0.37061-0.62305-1.0151-0.2793-0.6499-0.41358-1.3589-0.13428-0.70898-0.13428-1.3804 0-0.60156 0.12354-1.7026 0.12891-1.1548 0.13965-1.6865h0.90234q-0.02148 0.4834-0.17188 1.6865-0.13428 1.0742-0.13428 1.6973 0 0.93457 0.19336 1.6812 0.19873 0.74121 0.56934 1.2783 0.37598 0.53711 0.54785 0.53711 0.2793 0 0.75195-0.7627 0.47266-0.76807 0.84863-1.6543zm4.9146 1.5791-0.90234 0.026855v-0.09668q0-1.5898-0.51562-3.0938-0.51562-1.5039-1.4717-2.6855l0.66064-0.41895q2.1914 2.5083 2.229 6.2681z"/><path d="m44.924-0.95605q0-0.58545 0.42432-0.99902 0.42432-0.41357 1.0259-0.41357 0.60156 0 1.0259 0.41357 0.42432 0.41357 0.42432 0.99902 0 0.58545-0.42432 0.99902-0.42432 0.41357-1.0259 0.41357-0.60156 0-1.0259-0.41357-0.42432-0.41357-0.42432-0.99902zm0.62842 0q0 0.33838 0.2417 0.58008 0.2417 0.2417 0.58008 0.2417 0.33838 0 0.58008-0.2417 0.2417-0.2417 0.2417-0.58008t-0.2417-0.58008q-0.2417-0.2417-0.58008-0.2417-0.33838 0-0.58008 0.2417-0.2417 0.2417-0.2417 0.58008z"/><path d="m65.893-8.1157-0.61768 0.25244q-0.35449-0.82715-0.77344-1.4878l0.56396-0.26318q0.43506 0.67139 0.82715 1.4985zm-1.563 0.32764-0.61768 0.27393q-0.38672-0.87549-0.77881-1.5039l0.59082-0.26318q0.4458 0.6875 0.80566 1.4932zm-0.7627 7.8096h-8.2124v-0.76807h7.2886v-6.2573h-7.1919v-0.74121h8.1157z"/><path d="m75.564-3.5557h-8.8838v-0.79492h8.8838z"/><path d="m87.219-3.7168q-0.6875 1.4663-2.127 2.5566-1.4341 1.085-2.8359 1.4717l-0.39209-0.36523v-8.3628h0.90234v7.584q0.88623-0.26318 1.9229-1.0903 1.042-0.82715 1.8584-2.2666zm-7.6431-1.9121q0 1.2676-0.11279 2.0679-0.11279 0.79492-0.51562 1.563-0.39746 0.7627-1.0044 1.3965-0.60693 0.63379-1.3052 0.99902l-0.39746-0.68213q0.67139-0.41357 1.2407-1.0903 0.56934-0.67676 0.87549-1.6006 0.30615-0.92383 0.30615-2.8306v-2.2666h0.91309z"/><path d="m88.154-0.95605q0-0.58545 0.42432-0.99902 0.42432-0.41357 1.0259-0.41357 0.60156 0 1.0259 0.41357 0.42432 0.41357 0.42432 0.99902 0 0.58545-0.42432 0.99902-0.42432 0.41357-1.0259 0.41357-0.60156 0-1.0259-0.41357-0.42432-0.41357-0.42432-0.99902zm0.62842 0q0 0.33838 0.2417 0.58008 0.2417 0.2417 0.58008 0.2417t0.58008-0.2417 0.2417-0.58008-0.2417-0.58008-0.58008-0.2417-0.58008 0.2417q-0.2417 0.2417-0.2417 0.58008z"/></g></g><g transform="translate(56.693 210.94)"><g transform="scale(1,-1)" aria-label="救難信号もとい、頭痛の種の発信源。 "><path d="m8.3198-1.563q-1.0742 1.4019-2.7876 2.2451l-0.42432-0.55322q1.7778-0.96143 2.7715-2.4385-0.87012-1.6436-1.1494-3.2495-0.2041 0.38135-0.4082 0.70898l-0.56396-0.33838q0.47803-0.83252 0.854-1.9658 0.37598-1.1387 0.49414-2.0034l0.83789 0.11279q-0.10742 0.6499-0.39209 1.5254h3.1313v0.6499h-0.60693q-0.080566 2.5083-1.2729 4.5654 0.96143 1.4824 2.0356 2.3364l-0.59082 0.6123q-1.1226-0.97217-1.9282-2.2075zm0.010742-1.5254q0.76807-1.4985 0.92383-3.7812h-1.9229l-0.059082 0.15039q0.20947 1.9927 1.0581 3.6309zm-5.7363 3.7007h-1.2461l-0.10205-0.7627h0.99902q0.45117 0 0.45117-0.41357v-5.8008h-2.2881v-0.66064h2.2881v-2.0894h0.81641v2.0894h2.2666v0.66064h-2.2666v6.1338q0 0.39209-0.25781 0.61768-0.25244 0.22559-0.66064 0.22559zm2.2988-7.8633q-0.22559-0.47266-0.74121-1.2568l0.62842-0.34912q0.51562 0.78418 0.75195 1.2676zm-0.43506 3.5664-0.54248-0.30078q0.44043-0.65527 0.90234-1.8423l0.70361 0.25781q-0.57471 1.2192-1.0635 1.8853zm-2.9165 0.010742q-0.45654-1.1064-0.91309-1.7832l0.67676-0.30078q0.35986 0.61768 0.90771 1.7456zm3.8779 2.6157q-0.56396-0.70361-1.4663-1.6489l0.50488-0.46191q0.88086 0.82178 1.5361 1.5845zm-4.936 0.053711-0.34375-0.58008q0.91846-0.57471 1.939-1.5039l0.31152 0.58008q-0.47266 0.521-1.9067 1.5039z"/><path d="m20.136-0.58545h1.4502v0.62842h-3.5449v0.56934h-0.77344v-6.3433q-0.11279 0.23633-0.3706 0.6123l-0.45117-0.35986q1.085-1.7993 1.4502-3.7168l0.81641 0.11279q-0.19336 0.87012-0.55859 1.8423h1.2891q0.40283-1.0098 0.6499-1.8047l0.74121 0.14502q-0.1665 0.57471-0.6875 1.6597h1.3696v0.61768h-1.3804v1.5469h1.1816v0.58545h-1.1816v1.5684h1.2031v0.60693h-1.2031zm-2.0947-6.0371v1.5469h1.3213v-1.5469zm0 2.1323v1.5684h1.3213v-1.5684zm0 3.9048h1.3213v-1.7295h-1.3213zm-5.3979-6.6118v-0.60693h-1.2354v-0.60156h1.2354v-0.63916h0.73047v0.63916h1.3213v-0.63916h0.73047v0.63916h1.187v0.60156h-1.187v0.60693h-0.73047v-0.60693h-1.3213v0.60693zm1.4072 5.9565q-0.35986 0.67676-1.085 1.2139-0.7251 0.53174-1.5576 0.70898l-0.26856-0.52637q1.7725-0.59082 2.2881-1.7886h-2.0088v-0.6123h2.2236v-0.8916h-2.041v-0.60156h2.041v-0.854h-1.9551v-2.1753h4.5923v2.1753h-1.8745v0.854h2.041v0.60156h-2.041v0.8916h2.1646v0.6123h-1.9927q0.34912 0.49414 0.90234 0.9292 0.55322 0.42969 1.1011 0.62305l-0.39209 0.60693q-1.4287-0.57471-2.1377-1.7671zm1.5093-5.0005h-1.187v1.1118h1.187zm-1.8853 0h-1.2783v1.1118h1.2783z"/><path d="m23.692 0.70361v-5.4624q-0.53174 0.89697-1.085 1.5469l-0.52637-0.41895q0.84326-1.1387 1.5845-2.7285 0.74121-1.5952 0.98291-2.7769l0.83252 0.13428q-0.3169 1.3535-1.1709 3.0938h0.23633v6.6118zm2.3149-8.6045v-0.64453h5.8867v0.64453zm-0.67676 1.5469v-0.63916h7.2188v0.63916zm0.6875 1.4932v-0.61768h5.8008v0.61768zm0 1.5039v-0.60693h5.8008v0.60693zm5.2637 3.6094h-4.7373v0.33838h-0.80566v-3.0293h6.3486v2.9971h-0.80566zm-4.7373-0.62842h4.7373v-1.4448h-4.7373z"/><path d="m34.697-5.9458v-2.7554h7.541v2.7554zm6.6978-2.1538h-5.8652v1.5522h5.8652zm-2.4814 8.7441-0.10742-0.74121h1.3804q0.91846 0 1.0635-0.83789 0.14502-0.84326 0.14502-1.4395h-5.7686l-0.14502 0.6499h-0.854l0.59082-2.5459h-1.8584v-0.66602h10.178v0.66602h-7.4712l-0.2793 1.2461h6.5151q0 0.66064-0.06445 1.3696-0.06445 0.70361-0.23633 1.2676-0.17188 0.55859-0.50488 0.78418-0.33301 0.22559-0.75732 0.23633-0.42432 0.010742-1.1494 0.010742z"/><path d="m51.702-3.6953h-3.7383q-0.25781 1.52-0.25781 2.0142 0 1.3857 2.519 1.3857 3.083 0 3.083-1.5952 0-1.1763-0.61768-2.2881l0.68213-0.23096q0.7627 1.3267 0.7627 2.6157 0 2.2344-3.9102 2.2344-3.3408 0-3.3408-2.1646 0-0.61768 0.20947-1.9712h-2.1592v-0.71436h2.2827q0.11816-0.6875 0.39209-1.9497h-2.605v-0.7251h2.7661q0.11279-0.51562 0.37598-1.5522l0.85938 0.053711-0.35449 1.4985h4.8555v0.7251h-5.022q-0.22559 1.0098-0.39746 1.9497h3.6147z"/><path d="m64.958 0.18799q-1.5308 0.15576-3.2871 0.15576-0.7627 0-1.6597-0.026856-0.8916-0.026855-1.4717-0.14502-0.57471-0.11816-1.0259-0.42432-0.45117-0.30615-0.66064-0.71436-0.20947-0.4082-0.20947-0.93994 0-1.8369 2.9272-3.083-0.14502-1.6973-0.17188-3.6147h0.8916q-0.0054 0.23096-0.0054 0.48877 0 1.2568 0.10742 2.8037 1.0366-0.38135 3.9585-1.2139l0.22022 0.7627q-0.84863 0.22559-2.6479 0.74658-1.7939 0.521-2.6802 0.99365-0.88623 0.46729-1.3213 0.99365-0.43506 0.521-0.43506 1.1011 0 0.29004 0.11279 0.52637 0.11279 0.23633 0.35986 0.43506 0.24707 0.19873 0.67139 0.34912 0.42969 0.14502 1.1548 0.17725 0.7251 0.032227 1.5791 0.026856 1.9819 0 3.5933-0.19336z"/><path d="m71.414-2.8359q-0.18262 0.51025-0.58008 1.2461-0.39209 0.73584-0.80566 1.23-0.4082 0.48877-0.84863 0.48877-0.26855 0-0.47803-0.12891t-0.54785-0.49951q-0.33838-0.37061-0.62305-1.0151-0.2793-0.6499-0.41358-1.3589-0.13428-0.70898-0.13428-1.3804 0-0.60156 0.12354-1.7026 0.12891-1.1548 0.13965-1.6865h0.90234q-0.02148 0.4834-0.17188 1.6865-0.13428 1.0742-0.13428 1.6973 0 0.93457 0.19336 1.6812 0.19873 0.74121 0.56934 1.2783 0.37598 0.53711 0.54785 0.53711 0.2793 0 0.75195-0.7627 0.47266-0.76807 0.84863-1.6543zm4.9146 1.5791-0.90234 0.026855v-0.09668q0-1.5898-0.51562-3.0938-0.51562-1.5039-1.4717-2.6855l0.66064-0.41895q2.1914 2.5083 2.229 6.2681z"/><path d="m80.287 0.053711-0.73584 0.47266q-0.69824-1.1494-1.6704-2.2881l0.62842-0.44043q1.1763 1.3911 1.7778 2.2559z"/><path d="m93.914-1.3213v-5.6558h1.3965q0.19873-0.69287 0.28467-1.0527h-1.939v-0.6499h4.689v0.6499h-1.9443l-0.37598 1.0527h1.998v5.6558zm0.77344-3.9746h2.5405v-1.0527h-2.5405zm0 1.5952h2.5405v-1.0098h-2.5405zm2.5405 0.59619h-2.5405v1.1333h2.5405zm-8.7065-4.8501v-0.66064h4.5439v0.66064zm0.26856 4.2754v-3.1421h4.0015v3.1421zm3.2173-2.5244h-2.4331v1.9229h2.4331zm-3.647 6.7461-0.14502-0.66064q0.37598-0.037598 1.3159-0.16113l-0.56396-2.5674 0.75195-0.15576q0.18799 0.84326 0.54785 2.6211l1.0044-0.15039q0.4458-1.8154 0.58008-2.5298l0.80566 0.11279q-0.18799 0.85938-0.61768 2.2988l1.0474-0.17725v0.59619q-0.63379 0.17188-1.2568 0.27393-0.62305 0.10742-3.4697 0.49951zm9.9097 0.10205q-0.90772-0.41357-1.9282-1.3481l0.48877-0.4834q0.90234 0.75732 1.9229 1.2676zm-4.9575 0.021484-0.38135-0.52637q1.1226-0.51025 1.9819-1.3052l0.55322 0.4834q-1.1709 0.99902-2.1538 1.3481z"/><path d="m99.349-2.562-0.1665-0.73047q0.96142-0.32764 1.9658-0.78955 0.0215-0.29541 0.0215-0.63379v-3.6147h3.835v-0.82715h0.87549v0.82715h3.7705v0.60693h-7.686v2.8145q0 1.7134-0.59082 3.1958-0.59082 1.4771-1.4932 2.3042l-0.48342-0.4834q1.3267-1.3267 1.6704-3.5181-0.95068 0.52637-1.7187 0.84863zm0.50488-2.5674-0.46728-2.2666 0.70361-0.14502 0.4834 2.2397zm8.4165 3.8242h-2.0518v1.8853h-0.79492v-1.8853h-1.9336v1.9497h-0.79492v-5.4731h2.8843q-0.52637-0.33301-1.7295-0.9292l0.47265-0.46191q0.37061 0.18799 1.4126 0.78955 1.3535-0.60156 1.9658-1.0581h-4.9844v-0.59619h5.8599l0.35449 0.44043q-0.32763 0.32764-1.1064 0.80566-0.77881 0.47266-1.4824 0.7627l0.41894 0.24707h2.3203v4.6138q0 0.33301-0.24707 0.55859t-0.63916 0.22559h-1.1602l-0.0859-0.67139h0.90771q0.41358 0 0.41358-0.34912zm-2.8467-2.0518v-0.90771h-1.9336v0.90771zm0.79492-0.90771v0.90771h2.0518v-0.90771zm-2.7285 2.3848h1.9336v-0.91846h-1.9336zm2.7285 0h2.0518v-0.91846h-2.0518z"/><path d="m115.74 0.22021-0.20947-0.7251q1.7295-0.15576 2.9541-1.0044 1.23-0.84863 1.23-2.5352 0-1.5039-0.99365-2.3257-0.98829-0.82178-2.7608-0.87012-0.0591 2.8896-1.0366 4.8232-0.97754 1.9336-2.4492 1.9336-0.91308 0-1.4394-0.77344-0.521-0.77881-0.521-1.896 0-1.8423 1.5898-3.3086 1.5898-1.4717 3.7651-1.4717 2.0464 0 3.373 1.0259 1.3267 1.0205 1.3267 2.793 0 2.0195-1.3374 3.0884-1.3374 1.0688-3.4912 1.2461zm-0.62305-7.3906q-1.5576 0.23633-2.6802 1.4126-1.1226 1.1709-1.1226 2.6479 0 0.78418 0.32763 1.332 0.32764 0.54248 0.91309 0.54248 1.0044 0 1.751-1.8745 0.74658-1.8799 0.81103-4.0605z"/><path d="m124.92 0.4082v-0.62842h3.0293v-0.87549h-2.5728v-0.6123h2.5728v-0.82178h-2.3149v-3.5127h2.3149v-0.7627h-2.6855v-0.60693h2.6855v-0.71973q-0.99902 0.04834-1.9712 0.04834h-0.34375l-0.0644-0.59619q3.1152 0 5.3872-0.39209l0.31152 0.62842q-0.89697 0.15576-2.5137 0.26318v0.76807h2.8306v0.60693h-2.8306v0.7627h2.3686v3.5127h-2.3686v0.82178h2.5942v0.6123h-2.5942v0.87549h2.9863v0.62842zm5.4194-5.876h-1.5952v0.89697h1.5952zm-2.3794 0h-1.5469v0.89697h1.5469zm2.3794 1.4448h-1.5952v0.94531h1.5952zm-2.3794 0h-1.5469v0.94531h1.5469zm-6.4024 2.5835-0.46728-0.38135q0.59619-0.77344 1.1978-1.8691 0.60694-1.0957 0.80567-1.8584h-1.5469v-0.61768h1.6382v-1.7778q-1.0259 0.19873-1.6113 0.26318l-0.12354-0.56934q0.6875-0.075195 1.751-0.31152 1.0635-0.23633 1.7456-0.48877l0.32764 0.58545q-0.521 0.17725-1.2783 0.35449v1.9443h1.1655v0.61768h-1.1655v0.7251q0.42969 0.53711 1.1978 1.2515l-0.3706 0.63916q-0.43506-0.45117-0.82715-0.96143v4.6084h-0.81104v-4.6514q-0.93457 1.7456-1.6274 2.4976z"/><path d="m137.74 0.22021-0.20947-0.7251q1.7295-0.15576 2.9541-1.0044 1.23-0.84863 1.23-2.5352 0-1.5039-0.99365-2.3257-0.98829-0.82178-2.7608-0.87012-0.0591 2.8896-1.0366 4.8232-0.97754 1.9336-2.4492 1.9336-0.91308 0-1.4394-0.77344-0.521-0.77881-0.521-1.896 0-1.8423 1.5898-3.3086 1.5898-1.4717 3.7651-1.4717 2.0464 0 3.373 1.0259 1.3267 1.0205 1.3267 2.793 0 2.0195-1.3374 3.0884-1.3374 1.0688-3.4912 1.2461zm-0.62305-7.3906q-1.5576 0.23633-2.6802 1.4126-1.1226 1.1709-1.1226 2.6479 0 0.78418 0.32763 1.332 0.32764 0.54248 0.91309 0.54248 1.0044 0 1.751-1.8745 0.74658-1.8799 0.81103-4.0605z"/><path d="m143.91 0.63379-0.22559-0.61768q2.5889-0.60156 2.8843-2.5674h-2.5835v-0.65527h2.6426q5e-3 -0.14502 5e-3 -0.40283v-1.2461h-0.90771v-0.58008q-1.1602 0.81641-2.2559 1.2998l-0.34912-0.54785q1.1387-0.51025 2.1914-1.2783-0.52099-0.4082-1.606-1.1816l0.47266-0.50488q1.2192 0.82178 1.7188 1.2192 1.0903-0.9292 1.6382-1.6919h-3.561v-0.62842h5.0059q0.29541 0.49951 0.91308 1.1602 0.93995-0.6123 1.5898-1.2461l0.55859 0.45654q-0.61767 0.53174-1.7134 1.23 0.4834 0.46191 0.95606 0.81104 1.0527-0.77344 1.4985-1.2192l0.57471 0.4834q-0.55859 0.4834-1.5146 1.1172 0.89697 0.57471 1.9712 1.0366l-0.4458 0.63916q-1.0312-0.42969-2.0786-1.1387v0.56396h-1.1118v1.6489h2.75v0.65527h-2.75v1.9175q0 0.26318 0.19873 0.37061 0.19873 0.10742 0.87549 0.10742 0.69824 0 0.89697-0.091309 0.20411-0.091309 0.29004-0.32764 0.0859-0.2417 0.0859-1.0581l0.70898 0.075195v1.1709q0 0.37598-0.22558 0.58545-0.22559 0.21484-0.64453 0.26318-0.41358 0.053711-1.0527 0.053711-0.29541 0-0.93457-0.037598-0.63916-0.032227-0.84326-0.27393-0.2041-0.23633-0.2041-0.63916v-2.1162h-1.9067q-0.33301 2.5137-3.5127 3.1851zm1.9014-6.1284h5.3765q-1.7886-1.2568-2.7017-2.6694-0.82715 1.332-2.6748 2.6694zm1.665 0.63916v1.3589q0 0.10742-5e-3 0.29004h1.8584v-1.6489z"/><path d="m155.69 0.70361v-5.4624q-0.53173 0.89697-1.085 1.5469l-0.52636-0.41895q0.84326-1.1387 1.5845-2.7285 0.74121-1.5952 0.98291-2.7769l0.83252 0.13428q-0.3169 1.3535-1.1709 3.0938h0.23633v6.6118zm2.315-8.6045v-0.64453h5.8867v0.64453zm-0.67676 1.5469v-0.63916h7.2188v0.63916zm0.6875 1.4932v-0.61768h5.8008v0.61768zm0 1.5039v-0.60693h5.8008v0.60693zm5.2637 3.6094h-4.7373v0.33838h-0.80567v-3.0293h6.3486v2.9971h-0.80566zm-4.7373-0.62842h4.7373v-1.4448h-4.7373z"/><path d="m166.96-6.9502q-0.56397-0.77344-1.2246-1.5254l0.61767-0.46191q0.8003 0.88623 1.2354 1.4824zm4.8555 7.5142h-1.1978l-0.0913-0.73047h0.90772q0.17187 0 0.30615-0.09668 0.13428-0.10205 0.13428-0.25781v-2.5137h-2.0786v-3.9961h1.7886l0.31152-1.0796h-2.9702v2.75q0 1.8745-0.41895 3.4536-0.41894 1.5791-1.0527 2.4277l-0.54785-0.40283q1.2192-2.0894 1.2192-5.3174v-3.5234h7.3154v0.6123h-2.6426l-0.45655 1.0796h2.5405v3.9961h-2.1646v2.7607q0 0.38135-0.26855 0.60693-0.26319 0.23096-0.63379 0.23096zm-1.23-5.9351h3.4966v-1.0635h-3.4966zm3.4966 0.57471h-3.4966v1.1655h3.4966zm-7.7183 0.34375q-0.79493-1.0688-1.1978-1.5361l0.61768-0.43506q0.80029 0.90771 1.2192 1.4824zm-0.39209 4.8071-0.70362-0.46191q0.62305-1.0259 1.4019-3.6147l0.69287 0.30615q-0.66064 2.3901-1.3911 3.7705zm3.0078-0.16113-0.49414-0.4458q1.085-0.93457 1.7939-2.1216l0.73047 0.29004q-0.29541 0.521-0.95068 1.2515-0.6499 0.73047-1.0796 1.0259zm6.252 0.021484q-0.43506-0.35449-1.0259-1.0474-0.59082-0.69287-0.87011-1.1816l0.6499-0.34912q0.24707 0.4082 0.82715 1.0635 0.58545 0.65527 0.98828 0.97754z"/><path d="m176.92-0.95605q0-0.58545 0.42431-0.99902 0.42432-0.41357 1.0259-0.41357 0.60157 0 1.0259 0.41357 0.42432 0.41357 0.42432 0.99902 0 0.58545-0.42432 0.99902-0.42431 0.41357-1.0259 0.41357-0.60156 0-1.0259-0.41357-0.42431-0.41357-0.42431-0.99902zm0.62842 0q0 0.33838 0.2417 0.58008 0.24169 0.2417 0.58007 0.2417t0.58008-0.2417 0.2417-0.58008-0.2417-0.58008-0.58008-0.2417-0.58007 0.2417q-0.2417 0.2417-0.2417 0.58008z"/></g></g><g transform="translate(56.693 193.94)"><g transform="scale(1,-1)" aria-label="ドアをぶった切ったら、ああ、もう、コイツらは現行犯だし、いい気がするけど。 "><path d="m10.221-3.3408-0.56396 0.74658q-1.1172-0.74658-2.6694-1.4663-1.5522-0.71973-2.7661-1.085v5.6987h-0.95605v-9.4048h0.9668v2.8789q3.1851 0.95605 5.9888 2.6318zm-0.49951-3.7437-0.6123 0.25244q-0.34375-0.81104-0.77344-1.4824l0.56396-0.26318q0.42432 0.65527 0.82178 1.4932zm-1.5576 0.33301-0.61768 0.27393q-0.39209-0.8916-0.77881-1.5093l0.58008-0.26318q0.47266 0.73047 0.81641 1.4985z"/><path d="m21.737-7.9062q-0.09131 0.33838-0.57471 1.2729-0.47803 0.9292-1.4663 1.8745-0.98828 0.93994-1.7134 1.3374l-0.4834-0.58008q1.085-0.69824 1.9229-1.7188 0.84326-1.0205 1.0957-1.6812h-8.6475v-0.75732h9.5928zm-5.0488 1.4932q0 1.9229-0.22022 2.9971-0.21484 1.0742-0.84863 1.9336-0.63379 0.854-1.606 1.3696t-1.606 0.62842l-0.32764-0.70361q1.9927-0.56396 2.8037-1.7402 0.81104-1.1816 0.85938-2.9971l0.01074-1.4878z"/><path d="m28.977-1.3643h-0.79492v-1.7617q0-0.31152-0.01611-0.53174-2.4707 1.2407-2.4707 2.2505 0 0.50488 0.55322 0.80566 0.55322 0.29541 2.3311 0.29541 2.1108 0 3.3677-0.19873l0.05371 0.77881q-1.2783 0.15039-2.9541 0.15039-2.5835 0-3.3677-0.45117-0.78418-0.45117-0.78418-1.2891-0.0054-0.74658 0.6875-1.4771 0.69824-0.73047 2.4224-1.5791-0.22022-0.4834-0.78955-0.4834-0.64453 0-1.3911 0.23633-0.74121 0.23096-1.8423 1.1709l-0.8916 0.75195-0.46191-0.54785q1.9658-1.5254 2.9326-3.5234h-2.5029v-0.69824h2.7983q0.24707-0.63916 0.38135-1.2891l0.8916 0.075195q-0.13428 0.61768-0.36524 1.2139h3.9907v0.69824h-4.2754q-0.30078 0.61768-1.0474 1.6328l0.08057 0.042969q0.20947-0.13428 0.82715-0.25781 0.61768-0.12891 0.95068-0.12891 1.042 0 1.4233 0.77881l3.1636-1.2192 0.35449 0.7251q-1.1172 0.36523-3.3193 1.187 0.06445 0.40283 0.06445 1.0151z"/><path d="m41.089-7.6807-0.2793 0.75195q-0.47266-0.16113-1.9282-0.41357-1.4502-0.25781-3.4375-0.39209l0.12891-0.69287q2.5674 0.2041 3.459 0.33301 0.89697 0.12891 2.0571 0.41357zm-5.3281 7.106 0.29004-0.65527q1.375 0.69287 2.1108 0.69287 0.39209 0 0.60156-0.33301 0.20947-0.33838 0.20947-0.88086 0-0.44043-0.15039-0.87549-0.15039-0.43506-0.34375-0.71436-0.18799-0.28467-0.73047-1.042-0.42969-0.59619-0.42969-0.97217 0-0.77344 0.65527-1.563l0.66064 0.28467q-0.53174 0.65527-0.53174 1.1602 0 0.39746 0.61768 1.1064t0.88086 1.3857q0.26856 0.67139 0.26856 1.3965 0 0.81104-0.42969 1.3428-0.42432 0.53174-1.1387 0.53174-1.0366 0-2.5405-0.86475zm7.9438-0.18262-0.84863 0.2417q-0.2793-1.042-0.95606-2.3203-0.67139-1.2783-1.3535-2.0571l0.6499-0.37598q0.56934 0.56934 1.332 1.8799 0.7627 1.3105 1.1763 2.6318zm-7.7988-3.7007q-0.54785 2.3687-2.1108 4.1841l-0.66064-0.44043q0.6875-0.81641 1.2246-1.8906 0.54248-1.0796 0.73047-2.0356zm7.8096-3.3086-0.61768 0.25244q-0.35449-0.83252-0.76807-1.4824l0.56934-0.2793q0.3706 0.58008 0.81641 1.5093zm-1.4502 0.42969-0.61768 0.27393q-0.38672-0.86475-0.77881-1.5039l0.58008-0.26855q0.46729 0.7251 0.81641 1.4985z"/><path d="m47.201 0.14502-0.11816-0.69287q2.7607-0.075195 3.937-0.74658 1.1763-0.67139 1.1763-1.9175 0-0.93994-0.6123-1.5093-0.60693-0.56934-1.5791-0.56934-1.3535 0-4.7373 0.67139l-0.11279-0.7251 2.6265-0.4082q1.4878-0.23096 2.1914-0.23096 1.3535 0 2.1914 0.74658 0.83789 0.74121 0.83789 2.0088 0 1.6006-1.3267 2.4438-1.3213 0.84326-4.4741 0.9292z"/><path d="m58.84-8.7656q0 0.60156-0.05371 1.4395h3.9048v0.71436h-3.9639q-0.19336 2.0679-0.91309 4.0874-0.71973 2.0195-1.4609 2.9219l-0.63916-0.41895q0.77881-1.1064 1.3965-2.9648 0.62305-1.8638 0.76807-3.6255h-1.9551v-0.71436h2.0034q0.03223-0.69287 0.03223-1.4395zm6.1284 3.1797-0.01074 0.70361q-0.26318-0.010742-0.4834-0.010742-1.9229 0-4.227 0.22021l-0.05371-0.70898q2.1001-0.22021 4.1519-0.22021 0.35986 0 0.62305 0.016113zm0.3169 5.5859q-0.854 0.14502-2.3096 0.14502-1.23 0-1.9336-0.10205-0.69824-0.10205-1.1011-0.46729-0.40283-0.36523-0.40283-0.8916 0-0.7627 0.6123-1.4448l0.60156 0.33838q-0.39209 0.52637-0.39209 1.0151-0.0054 0.33301 0.35986 0.57471 0.3706 0.2417 2.0625 0.2417 1.2891 0 2.46-0.14502z"/><path d="m67.402-5.833-1.1816 0.13965-0.04297-0.69287 1.2246-0.13965v-2.6104h0.854v2.5137l2.5996-0.29541 0.04834 0.67676-2.648 0.31152v3.8726q0 0.18799 0.09668 0.30078 0.10205 0.10742 0.26856 0.13965 0.17188 0.026855 0.61768 0.026855 0.29004 0 0.4082-0.032227t0.20947-0.15576q0.09131-0.12354 0.12354-0.37598 0.0376-0.25781 0.06983-1.1279l0.70361 0.059082v1.3696q0 0.35449-0.21484 0.58545-0.20947 0.22559-0.4834 0.30078-0.26856 0.075195-1.0688 0.075195-0.71973 0-0.95068-0.064453-0.23096-0.064453-0.43506-0.30078-0.19873-0.2417-0.19873-0.65527zm2.7715 6.5259-0.49414-0.54248q1.144-0.78955 1.8638-2.1377 0.71973-1.3535 0.71973-3.7007l-0.01074-0.96143q0-0.2417 0.01611-1.3911h-1.5254v-0.6499h5.3657v2.2451q0 2.7285-0.10742 4.2056-0.10205 1.4717-0.29004 1.8638-0.18799 0.39209-0.47266 0.59619-0.28467 0.2041-0.63379 0.25781-0.34912 0.059082-1.6973 0.042969l-0.10742-0.73584h1.0742q0.42432 0 0.69824-0.17725 0.27392-0.17725 0.41357-0.66064 0.14502-0.48877 0.2041-1.6167 0.06445-1.1333 0.06445-3.1206l-0.01074-2.2505h-2.1108l0.0054 0.96143q0.01074 2.2935-0.2041 3.5127-0.21484 1.2192-0.91309 2.3633-0.69287 1.144-1.8477 1.896z"/><path d="m80.201 0.14502-0.11816-0.69287q2.7607-0.075195 3.937-0.74658 1.1763-0.67139 1.1763-1.9175 0-0.93994-0.6123-1.5093-0.60693-0.56934-1.5791-0.56934-1.3535 0-4.7373 0.67139l-0.11279-0.7251 2.6265-0.4082q1.4878-0.23096 2.1914-0.23096 1.3535 0 2.1914 0.74658 0.83789 0.74121 0.83789 2.0088 0 1.6006-1.3267 2.4438-1.3213 0.84326-4.4741 0.9292z"/><path d="m91.84-8.7656q0 0.60156-0.05371 1.4395h3.9048v0.71436h-3.9639q-0.19336 2.0679-0.91309 4.0874-0.71973 2.0195-1.4609 2.9219l-0.63916-0.41895q0.77881-1.1064 1.3965-2.9648 0.62305-1.8638 0.76807-3.6255h-1.9551v-0.71436h2.0034q0.03223-0.69287 0.03223-1.4395zm6.1284 3.1797-0.01074 0.70361q-0.26318-0.010742-0.4834-0.010742-1.9229 0-4.227 0.22021l-0.05371-0.70898q2.1001-0.22021 4.1519-0.22021 0.35986 0 0.62305 0.016113zm0.3169 5.5859q-0.854 0.14502-2.3096 0.14502-1.23 0-1.9336-0.10205-0.69824-0.10205-1.1011-0.46729-0.40283-0.36523-0.40283-0.8916 0-0.7627 0.6123-1.4448l0.60156 0.33838q-0.39209 0.52637-0.39209 1.0151-0.0054 0.33301 0.35986 0.57471 0.3706 0.2417 2.0625 0.2417 1.2891 0 2.46-0.14502z"/><path d="m107.9-7.2617-0.41894 0.70361q-0.39209-0.18262-1.1816-0.42432-0.78418-0.24707-1.6489-0.47266-0.85937-0.23096-2.648-0.54248l0.2417-0.68213q1.9551 0.32764 3.5127 0.75732 1.5576 0.42969 2.1431 0.66064zm-5.6182 7.6807-0.11279-0.73584q3.4482-0.042969 4.646-0.60156 1.1978-0.56396 1.1978-1.5684 0-0.88623-0.62842-1.3643-0.62305-0.4834-1.6812-0.4834-1.2676 0-2.6211 0.55859-1.3481 0.55322-2.0571 1.4126l-0.70361-0.4082q0.69824-1.7939 0.77881-4.3667l0.87011 0.021484q-0.0376 1.4502-0.58007 3.4751 0.73584-0.60693 1.9497-0.99902 1.2192-0.39746 2.272-0.39746 1.5576 0 2.4224 0.65527t0.86475 1.896q0 1.375-1.4126 2.1431-1.4072 0.7627-4.9629 0.7627z"/><path d="m113.29 0.053711-0.73584 0.47266q-0.69824-1.1494-1.6704-2.2881l0.62842-0.44043q1.1763 1.3911 1.7778 2.2559z"/><path d="m126.39 0.44043-0.14502-0.66064q2.0464-0.021484 3.1528-0.62305 1.1118-0.60693 1.1172-1.7617 0-0.71973-0.54248-1.2354-0.53711-0.51562-1.4717-0.75732-0.70899 1.8208-2.229 3.2227-1.52 1.3965-3.0884 1.3965-0.73046 0-1.1279-0.4082-0.39746-0.41357-0.39746-1.1602 0-1.0527 0.81104-1.9658 0.8164-0.91846 2.1001-1.4287-0.0161-0.41895-0.0161-0.83252 0-0.41895 0.0161-0.81641h-2.6587v-0.70361h2.6963q0.0537-0.80566 0.11817-1.4824l0.83789 0.010742q-0.0698 0.57471-0.13428 1.4395h4.9629v0.70361h-5.0112q-0.0376 0.61768-0.0376 1.1279l5e-3 0.30078q0.84327-0.22021 1.7241-0.22021 1.8423 0.00537 3.0615 0.74658 1.2246 0.74121 1.2246 2.0947 0 1.4556-1.3696 2.2344-1.3643 0.77881-3.459 0.77881zm1.3052-5.1777q-0.27929-0.026855-0.55859-0.026855-0.8916 0-1.7671 0.2793 0.0698 1.4448 0.34912 2.6533 1.2354-1.1064 1.9766-2.9058zm-3.083 0.55322q-0.85938 0.41895-1.52 1.1333-0.65528 0.71436-0.65528 1.3804 0 0.97754 0.80567 0.97754 0.84326 0 1.8369-0.64453-0.34375-1.1709-0.46728-2.8467z"/><path d="m137.39 0.44043-0.14502-0.66064q2.0464-0.021484 3.1528-0.62305 1.1118-0.60693 1.1172-1.7617 0-0.71973-0.54248-1.2354-0.53711-0.51562-1.4717-0.75732-0.70899 1.8208-2.229 3.2227-1.52 1.3965-3.0884 1.3965-0.73046 0-1.1279-0.4082-0.39746-0.41357-0.39746-1.1602 0-1.0527 0.81104-1.9658 0.8164-0.91846 2.1001-1.4287-0.0161-0.41895-0.0161-0.83252 0-0.41895 0.0161-0.81641h-2.6587v-0.70361h2.6963q0.0537-0.80566 0.11817-1.4824l0.83789 0.010742q-0.0698 0.57471-0.13428 1.4395h4.9629v0.70361h-5.0112q-0.0376 0.61768-0.0376 1.1279l5e-3 0.30078q0.84327-0.22021 1.7241-0.22021 1.8423 0.00537 3.0615 0.74658 1.2246 0.74121 1.2246 2.0947 0 1.4556-1.3696 2.2344-1.3643 0.77881-3.459 0.77881zm1.3052-5.1777q-0.27929-0.026855-0.55859-0.026855-0.8916 0-1.7671 0.2793 0.0698 1.4448 0.34912 2.6533 1.2354-1.1064 1.9766-2.9058zm-3.083 0.55322q-0.85937 0.41895-1.52 1.1333-0.65528 0.71436-0.65528 1.3804 0 0.97754 0.80567 0.97754 0.84326 0 1.8369-0.64453-0.34375-1.1709-0.46729-2.8467z"/><path d="m146.29 0.053711-0.73584 0.47266q-0.69824-1.1494-1.6704-2.2881l0.62842-0.44043q1.1763 1.3911 1.7778 2.2559z"/><path d="m161.7-3.6953h-3.7383q-0.25782 1.52-0.25782 2.0142 0 1.3857 2.519 1.3857 3.083 0 3.083-1.5952 0-1.1763-0.61768-2.2881l0.68213-0.23096q0.76269 1.3267 0.76269 2.6157 0 2.2344-3.9102 2.2344-3.3408 0-3.3408-2.1646 0-0.61768 0.20947-1.9712h-2.1592v-0.71436h2.2827q0.11816-0.6875 0.39208-1.9497h-2.605v-0.7251h2.7661q0.11279-0.51562 0.37597-1.5522l0.85938 0.053711-0.35449 1.4985h4.8555v0.7251h-5.022q-0.22558 1.0098-0.39746 1.9497h3.6148z"/><path d="m173.37-7.8525-0.18799 0.75732q-2.1108-0.41357-6.0854-0.49414l0.0376-0.7251q1.1816 0 2.5459 0.085937 1.3643 0.080566 3.69 0.37598zm-5.3496 8.2822-0.15039-0.70361q2.3794-0.1665 3.6792-0.73047 1.2998-0.56396 1.7241-1.2085 0.42431-0.6499 0.42431-1.5361 0-0.76807-0.6123-1.2031-0.61231-0.44043-1.563-0.44043-0.51026 0-1.1118 0.059082-0.60156 0.053711-1.0044 0.11816-0.40283 0.064453-2.9326 0.52637l-0.14502-0.76807 2.1001-0.34375q0.99365-0.1665 1.7456-0.23633 0.75733-0.069824 1.3589-0.069824 1.375 0 2.1914 0.62842 0.82177 0.62305 0.82177 1.7725 0 1.9336-1.7295 2.9863-1.7241 1.0527-4.7964 1.1494z"/><path d="m179.29 0.053711-0.73584 0.47266q-0.69824-1.1494-1.6704-2.2881l0.62842-0.44043q1.1763 1.3911 1.7778 2.2559z"/><path d="m196.45 0.021484h-8.438v-0.76807h7.5142v-6.2573h-7.4121v-0.74121h8.3359z"/><path d="m204.86 0.51562h-0.95606v-5.3496q-2.3579 1.2515-5.0273 1.8745l-0.28467-0.73584q3.4858-0.89697 5.5-2.2505t3.0239-2.7983l0.88086 0.34375q-0.97754 1.4609-3.1367 2.9434z"/><path d="m215.33-4.5117-0.88086 0.32227q-0.49414-1.6973-1.5522-3.6738l0.76807-0.34375q0.51562 0.88623 0.81103 1.5469 0.29541 0.65527 0.85401 2.1484zm3.7598-3.2764q-0.42968 3.8511-2.2612 5.8384-1.8262 1.9873-5.4839 2.5352l-0.26319-0.79492q2.4922-0.35449 3.9854-1.4072 1.4985-1.0527 2.2075-2.7876 0.70899-1.7402 0.83789-3.4697zm-6.9394 3.8833-0.90234 0.34375q-0.49414-1.6973-1.5522-3.6846l0.78955-0.34375q0.58545 0.99902 0.87012 1.6489 0.28467 0.64453 0.79492 2.0356z"/><path d="m228.9-7.2617-0.41894 0.70361q-0.39209-0.18262-1.1816-0.42432-0.78418-0.24707-1.6489-0.47266-0.85937-0.23096-2.648-0.54248l0.2417-0.68213q1.9551 0.32764 3.5127 0.75732 1.5576 0.42969 2.1431 0.66064zm-5.6182 7.6807-0.11279-0.73584q3.4482-0.042969 4.646-0.60156 1.1978-0.56396 1.1978-1.5684 0-0.88623-0.62842-1.3643-0.62305-0.4834-1.6812-0.4834-1.2676 0-2.6211 0.55859-1.3481 0.55322-2.0571 1.4126l-0.70361-0.4082q0.69824-1.7939 0.77881-4.3667l0.87011 0.021484q-0.0376 1.4502-0.58007 3.4751 0.73584-0.60693 1.9497-0.99902 1.2192-0.39746 2.272-0.39746 1.5576 0 2.4224 0.65527t0.86475 1.896q0 1.375-1.4126 2.1431-1.4072 0.7627-4.9629 0.7627z"/><path d="m241.75-0.97754-0.4834 0.66064q-0.521-0.47266-1.8584-1.332v0.32764q0 0.81641-0.54248 1.2246-0.53711 0.40283-1.8315 0.40283-0.87549 0-1.5039-0.42432-0.62304-0.42432-0.62304-1.1387 0-0.73047 0.59619-1.1816 0.59619-0.45654 1.4394-0.45654 0.82715 0 1.6113 0.19873v-3.1743h-3.7759v-0.7251h3.7759v-1.9712h0.84326v1.9712h2.0034v0.7251h-2.0034v3.4697q1.2515 0.50488 2.3525 1.4233zm-3.1475-0.34375v-0.6499q-0.64453-0.27393-1.6436-0.27393-0.55859 0.00537-0.91845 0.25781-0.3545 0.24707-0.3545 0.6875 0 0.43506 0.41358 0.68213 0.41357 0.2417 0.98291 0.2417 1.52 0 1.52-0.94531zm-5.0811 1.4287-0.80029 0.17725q-0.54785-1.7671-0.54785-3.835 0-2.2559 0.73584-4.8662l0.82178 0.14502q-0.73584 2.4277-0.73584 4.6299 0 1.9443 0.52636 3.749z"/><path d="m249.62-2.8252h-1.1172q-0.28466 2.6641-3.0884 3.4805l-0.30616-0.57471q2.3472-0.75195 2.562-2.9058h-0.91308v-5.978h4.8931v5.978h-1.2139v2.2988q0 0.18799 0.13428 0.29004 0.13427 0.10205 0.56396 0.10205 0.42432 0 0.59619-0.09668 0.17188-0.09668 0.22022-0.34912 0.0537-0.25244 0.0806-0.99902l0.67139 0.064453 5e-3 0.87012q0 0.44043-0.043 0.61768t-0.19336 0.31152q-0.15039 0.13965-0.38672 0.19336-0.23095 0.053711-0.93457 0.053711-0.51562 0-0.84326-0.032227-0.32226-0.032227-0.50488-0.24707-0.18262-0.20947-0.18262-0.59619zm-2.0625-4.1948h3.2764v-1.1816h-3.2764zm0 1.7725h3.2764v-1.1709h-3.2764zm3.2764 0.60693h-3.2764v1.1978h3.2764zm-8.4756 3.6416-0.1665-0.7251q0.60693-0.11816 1.6167-0.36523v-2.9326h-1.3589v-0.61768h1.3589v-2.4009h-1.4233v-0.63916h3.5664v0.63916h-1.3374v2.4009h1.2031v0.61768h-1.2031v2.7285q1.085-0.29004 1.6382-0.49951l0.11279 0.63916q-0.39746 0.18262-1.8208 0.59082-1.4233 0.40283-2.186 0.56396z"/><path d="m253.81-6.0532-0.45654-0.53711q1.2891-0.90771 2.2773-2.4385l0.79493 0.29541q-0.521 0.76807-1.273 1.5361-0.74658 0.76807-1.3428 1.144zm3.8403-1.8423v-0.68213h5.5161v0.68213zm-2.6587 8.5884v-4.4258q-0.71972 0.83252-1.3804 1.3696l-0.52099-0.4834q0.84863-0.71973 1.6758-1.8262 0.83252-1.1064 1.2676-1.998l0.80566 0.22559q-0.4834 0.93457-1.3052 2.0303h0.30615v5.1079zm5.7202-0.15039h-1.6704l-0.0913-0.78418h1.3374q0.4458 0 0.4458-0.37061v-4.1948h-3.6577v-0.67139h6.5527v0.67139h-1.998v4.5547q0 0.35986-0.2793 0.57471-0.27393 0.22021-0.63916 0.22021z"/><path d="m264.84-1.5952-0.41357-0.46191q1.5254-1.3911 2.3633-3.0991-0.15576-0.63916-0.42969-1.2676-0.82178 1.0366-1.5308 1.5952l-0.45654-0.43506q0.82177-0.7627 1.6436-1.8691-0.4082-0.75732-0.97217-1.4448l0.60694-0.37061q0.43506 0.51025 0.82715 1.1494 0.46728-0.71436 0.70898-1.3052l0.76269 0.26855q-0.32763 0.68213-1.0796 1.7295 0.97753 1.9229 0.97753 4.0176 0 1.0259-0.11279 1.7563-0.11279 0.7251-0.32226 1.1494-0.20948 0.41895-0.48877 0.58545-0.2793 0.17188-0.5586 0.2041-0.27929 0.032227-1.042 0.032227-0.22021 0-0.37061-0.005371l-0.11279-0.7251h0.93457q0.71973 0 0.97754-0.67139 0.25781-0.67676 0.2793-2.1807v-0.15039q0-0.55322-0.0591-1.0527-0.62842 1.2783-2.1323 2.5513zm4.0068-7.106h4.8608v4.5117q0 0.33301-0.29004 0.60156-0.28467 0.26318-0.67676 0.26318h-1.4824l-0.13428-0.74121h1.2568q0.47265 0 0.47265-0.42432v-3.561h-3.1528v7.2617q0 0.2417 0.12891 0.37061 0.1289 0.12891 0.30615 0.15039 0.18262 0.016113 0.68213 0.042969 0.50488 0.021484 0.9668 0.021484 0.73046 0 1.1064-0.042969 0.38135-0.042969 0.49951-0.10742 0.11817-0.064453 0.18799-0.17188 0.0698-0.11279 0.11279-0.43506 0.0483-0.32764 0.0483-1.2998l0.75196 0.11279v1.563q0 0.27393-0.13965 0.49414-0.13428 0.22021-0.36524 0.35449-0.22558 0.13428-0.50488 0.16113-0.2793 0.032227-0.85937 0.059082-0.57471 0.026856-1.1548 0.026856-0.55322 0-1.042-0.026856-0.4834-0.021484-0.7251-0.053711-0.2417-0.026856-0.4458-0.18262-0.2041-0.15576-0.30615-0.35449-0.10205-0.2041-0.10205-0.45654z"/><path d="m278.84-8.7656q0 0.60156-0.0537 1.4395h3.8618v0.71436h-3.9209q-0.19336 2.0679-0.91309 4.0874-0.71972 2.0195-1.4609 2.9219l-0.63916-0.41895q0.7788-1.1064 1.3965-2.9648 0.62305-1.8638 0.76807-3.6255h-1.9551v-0.71436h2.0034q0.0322-0.69287 0.0322-1.4395zm6.1284 3.1797-0.0107 0.70361q-0.26319-0.010742-0.4834-0.010742-1.9228 0-4.227 0.22021l-0.0537-0.70898q2.1001-0.22021 4.1518-0.22021 0.35987 0 0.62305 0.016113zm0.31689 5.5859q-0.854 0.14502-2.3096 0.14502-1.23 0-1.9336-0.10205-0.69824-0.10205-1.1011-0.46729-0.40284-0.36523-0.40284-0.8916 0-0.7627 0.61231-1.4448l0.60156 0.33838q-0.39209 0.52637-0.39209 1.0151-5e-3 0.33301 0.35986 0.57471 0.37061 0.2417 2.0625 0.2417 1.2891 0 2.46-0.14502zm-0.0537-7.9009-0.61767 0.25244q-0.35449-0.83252-0.76807-1.4824l0.56934-0.27393q0.3706 0.57471 0.8164 1.5039zm-1.563 0.33301-0.61768 0.27393q-0.38135-0.87012-0.77881-1.5093l0.58545-0.26318q0.46191 0.7251 0.81104 1.4985z"/><path d="m296.2-3.7598q-0.60694 2.1484-1.7886 3.1582-1.1816 1.0098-3.04 1.0098-0.72509 0-1.2891-0.14502-0.56396-0.14502-0.9668-0.42969-0.40283-0.29004-0.64453-0.71973-0.2417-0.43506-0.31152-0.93994-0.0644-0.50488-0.0644-1.6704 0-1.9819 0.23632-4.8662h0.88086q-0.28466 2.7661-0.28466 4.9092 0 0.74658 0.0322 1.2622 0.0376 0.51025 0.31153 0.94531 0.27929 0.43506 0.82714 0.66064 0.54786 0.22559 1.3589 0.22559 1.4556 0 2.4224-0.81641 0.9668-0.82178 1.5684-2.8628z"/><path d="m300.29 0.053711-0.73584 0.47266q-0.69824-1.1494-1.6704-2.2881l0.62842-0.44043q1.1763 1.3911 1.7778 2.2559z"/><path d="m313.41-2.8359q-0.18261 0.51025-0.58008 1.2461-0.39209 0.73584-0.80566 1.23-0.4082 0.48877-0.84863 0.48877-0.26856 0-0.47803-0.12891t-0.54785-0.49951-0.62305-1.0151q-0.2793-0.6499-0.41357-1.3589-0.13428-0.70898-0.13428-1.3804 0-0.60156 0.12354-1.7026 0.1289-1.1548 0.13964-1.6865h0.90235q-0.0215 0.4834-0.17188 1.6865-0.13427 1.0742-0.13427 1.6973 0 0.93457 0.19335 1.6812 0.19873 0.74121 0.56934 1.2783 0.37598 0.53711 0.54785 0.53711 0.2793 0 0.75196-0.7627 0.47265-0.76807 0.84863-1.6543zm4.9146 1.5791-0.90234 0.026855v-0.09668q0-1.5898-0.51563-3.0938-0.51562-1.5039-1.4717-2.6855l0.66065-0.41895q2.1914 2.5083 2.229 6.2681z"/><path d="m324.41-2.8359q-0.18261 0.51025-0.58008 1.2461-0.39209 0.73584-0.80566 1.23-0.4082 0.48877-0.84863 0.48877-0.26856 0-0.47803-0.12891t-0.54785-0.49951-0.62305-1.0151q-0.2793-0.6499-0.41357-1.3589-0.13428-0.70898-0.13428-1.3804 0-0.60156 0.12354-1.7026 0.1289-1.1548 0.13964-1.6865h0.90235q-0.0215 0.4834-0.17188 1.6865-0.13427 1.0742-0.13427 1.6973 0 0.93457 0.19335 1.6812 0.19873 0.74121 0.56934 1.2783 0.37598 0.53711 0.54785 0.53711 0.2793 0 0.75196-0.7627 0.47265-0.76807 0.84863-1.6543zm4.9146 1.5791-0.90234 0.026855v-0.09668q0-1.5898-0.51563-3.0938-0.51562-1.5039-1.4717-2.6855l0.66065-0.41895q2.1914 2.5083 2.229 6.2681z"/><path d="m332.77-7.498q-0.99902 1.3267-1.8745 2.0195l-0.50488-0.4458q0.67676-0.54248 1.3696-1.4556 0.69824-0.91846 1.1226-1.8477l0.83252 0.19336q-0.25782 0.521-0.50489 0.90771h6.7085v0.62842zm-0.23632 1.5576v-0.6123h6.542v0.6123zm7.106 6.5366q-0.41894 0-0.88086-0.4082-0.45654-0.4082-0.71972-1.4771-0.26319-1.0688-0.26319-3.0991h-6.9663v-0.59619h7.772l-0.0107 0.91309q0 0.66602 0.0967 1.6812t0.34375 1.5737q0.24707 0.55859 0.55322 0.55859 0.24707 0 0.32763-0.37061 0.0806-0.37598 0.12891-1.4072l0.67139 0.11279q-0.0161 0.35449-0.0537 0.8916-0.0376 0.53711-0.12891 0.92383-0.0859 0.38672-0.33301 0.54248-0.2417 0.16113-0.53711 0.16113zm-5.3013-2.0088q-1.6221 1.2998-3.4858 1.9712l-0.33838-0.58545q1.708-0.69287 3.1528-1.8315-1.3535-0.88086-2.041-1.23l0.44043-0.56934q0.95068 0.47266 2.2129 1.2783 0.89697-0.83789 1.5576-1.7993l0.81641 0.37061q-0.66602 0.91309-1.7026 1.8691 1.2085 0.80029 2.1162 1.4878l-0.56934 0.60693q-0.73047-0.60693-2.1592-1.5684z"/><path d="m344.7-7.7236q0 0.4834-0.0483 1.1011h2.0625q0.7627 0 1.1924 0.54785 0.43505 0.54248 0.43505 1.4233 0 2.1646-0.45654 3.5879-0.45654 1.4233-1.6006 1.4233-0.66602 0-1.8692-0.63379l0.26319-0.68213q0.29004 0.13965 0.80566 0.31152 0.521 0.1665 0.71436 0.1665 0.44043 0.005371 0.69824-0.46191 0.26318-0.47266 0.42969-1.3213 0.17187-0.854 0.17187-2.0249 0-1.0688-0.29004-1.3481-0.28466-0.28467-0.75732-0.28467h-1.8691q-0.18799 1.8262-0.87012 3.502-0.67676 1.6758-1.7134 2.8359l-0.60693-0.44043q0.69824-0.82715 1.3857-2.2988 0.69287-1.4771 0.93457-3.4858h-2.1001v-0.71973h2.186q0.0376-0.37598 0.0376-2.1646h0.86474zm6.5903 4.4526-0.83789 0.22021q-0.73046-2.6909-2.1323-4.1895l0.62842-0.42969q0.73584 0.75195 1.4126 2.0356 0.67675 1.2783 0.92919 2.3633zm0.56397-4.6191-0.61768 0.25244q-0.35986-0.83252-0.76806-1.4878l0.56933-0.27393q0.37061 0.57471 0.81641 1.5093zm-1.5415 0.22021-0.61768 0.27393q-0.38672-0.86475-0.77881-1.5039l0.58008-0.26855q0.46728 0.7251 0.81641 1.4985z"/><path d="m358.26-4.5977q-0.30616-0.60693-1.2783-0.60693-0.47265 0.00537-0.84326 0.39209-0.3706 0.38672-0.36523 0.86475 0 0.521 0.29004 0.83789t0.78955 0.31689q0.63379 0 1.0098-0.41357 0.38135-0.41357 0.39747-1.085zm4.2432-2.1807h-3.3892v2.0679q0.35449 0.62305 0.35449 1.708-5e-3 1.418-1.0527 2.3848-1.042 0.96143-2.5781 1.0581l-0.22021-0.67139q1.2891-0.091309 2.1646-0.88623 0.88086-0.79492 0.88086-1.9712 0-0.19873-0.0215-0.35986-0.13427 0.62305-0.62842 0.98291-0.49414 0.35449-1.187 0.35449-0.78418 0-1.3267-0.49414-0.54248-0.49951-0.54248-1.2515 0-0.86475 0.60694-1.4395 0.6123-0.58008 1.4985-0.58008 0.66602 0 1.187 0.39209v-1.2944h-5.3818v-0.70361h5.3818v-1.2837h0.86475v1.2837h3.3892z"/><path d="m369.97-0.39209q2.0142-0.4834 2.0142-2.0732 0-0.98291-0.74121-1.52-0.74121-0.53711-1.9766-0.53711-0.84864 0-1.6597 0.21484-0.80567 0.21484-1.8584 0.87549-1.0474 0.66064-1.4609 1.0098l-0.39746-0.66064q3.271-2.1108 6.3916-4.4419l-5.4355 0.021484v-0.71436h6.5581l0.37598 0.54785-3.7866 2.6211 0.043 0.064453q0.65527-0.19873 1.3052-0.19873 1.5415 0 2.5298 0.70898 0.99365 0.70898 0.99365 1.9604 0 1.4663-1.2139 2.2397-1.2139 0.76807-3.2549 0.76807-2.8037 0-2.8037-1.5415 0-0.60693 0.58008-1.0205 0.58007-0.41357 1.273-0.41357 0.97216 0 1.665 0.54248 0.69288 0.54248 0.85938 1.5469zm-0.78955 0.13965q-0.31152-1.5415-1.6758-1.5415-0.43506 0-0.78418 0.21484-0.34375 0.21484-0.34375 0.56934 0 0.82178 1.9014 0.82178 0.41357 0 0.90234-0.064453z"/><path d="m379.76 0.47266-0.33838-0.62842q1.1763-0.4458 1.7241-1.2837 0.54785-0.83789 0.54785-2.2344v-1.9604h-3.5825v-0.7251h3.5825v-2.1646h0.84326v2.1646h2.1538v0.7251h-2.1538v2.0464q0 3.1421-2.7769 4.0605zm-1.7778-3.2334q-1.3159 2.0249-1.4985 2.8467l-0.66065-0.042969q-0.6499-1.8047-0.6499-3.8457 0-1.9229 0.61768-4.4902l0.84863 0.15039q-0.65528 2.5942-0.65528 4.3022 0 1.3804 0.25782 2.6104 0.66601-1.1226 1.1548-1.8638z"/><path d="m394.93 0.18799q-1.5308 0.15576-3.2871 0.15576-1.0044 0-1.8047-0.032227-0.79492-0.032227-1.2192-0.11816-0.41895-0.085938-0.78955-0.25244-0.37061-0.17188-0.64991-0.42969-0.27929-0.26318-0.42431-0.61768-0.13965-0.35986-0.13965-0.80029 0-1.8369 2.9272-3.083-0.14502-1.6973-0.17187-3.6147h0.8916q-5e-3 0.23096-5e-3 0.48877 0 1.2568 0.10742 2.8037 1.042-0.38135 3.9585-1.2139l0.22021 0.7627q-0.854 0.22559-2.6426 0.74658-1.7832 0.51562-2.6748 0.98291-0.88623 0.46729-1.3267 0.99365t-0.44043 1.1118q0 0.53711 0.39746 0.89697 0.39746 0.35986 1.0366 0.48877 0.64453 0.12891 2.4385 0.12891 1.9873 0 3.5986-0.19336zm0.56934-7.9438-0.61768 0.25244q-0.35449-0.83252-0.76807-1.4824l0.58008-0.26318q0.43506 0.71436 0.80567 1.4932zm-1.563 0.33301-0.61231 0.27393q-0.38671-0.87012-0.78418-1.5093l0.58545-0.26318q0.46729 0.7251 0.81104 1.4985z"/><path d="m396.92-0.95605q0-0.58545 0.42431-0.99902 0.42432-0.41357 1.0259-0.41357 0.60157 0 1.0259 0.41357 0.42432 0.41357 0.42432 0.99902 0 0.58545-0.42432 0.99902-0.42431 0.41357-1.0259 0.41357-0.60156 0-1.0259-0.41357-0.42431-0.41357-0.42431-0.99902zm0.62842 0q0 0.33838 0.2417 0.58008 0.24169 0.2417 0.58007 0.2417t0.58008-0.2417 0.2417-0.58008-0.2417-0.58008-0.58008-0.2417-0.58007 0.2417q-0.2417 0.2417-0.2417 0.58008z"/></g></g><g transform="translate(56.693 176.94)"><g transform="scale(1,-1)" aria-label="お約束はお約束。 "><path d="m5.4355 0.064453 0.19873-0.66064q0.6499 0.24707 1.375 0.24707 1.0044 0 1.5791-0.46729 0.57471-0.46729 0.57471-1.3374 0-0.95068-0.77344-1.4448t-2.1538-0.49414q-0.92383 0-1.7886 0.2041v3.228q0 1.0312-1.563 1.0312-0.89697 0-1.5791-0.52637-0.67676-0.53174-0.67676-1.3428 0-0.8916 0.84326-1.6758 0.84863-0.78418 2.1162-1.2031v-1.8477h-2.6748v-0.70361h2.6533v-1.7402h0.88086v1.6597h2.8037v0.70361h-2.8037v1.6973q0.87549-0.18799 1.7725-0.18799 1.6113 0 2.707 0.6875 1.0957 0.6875 1.0957 1.9121 0 1.2246-0.76807 1.9121-0.7627 0.6875-2.0732 0.6875-1.0957 0-1.7456-0.33838zm-1.8262-3.6953q-0.92383 0.36523-1.5522 0.9292-0.62842 0.56396-0.62842 1.1602 0 0.56934 0.45654 0.87012 0.46191 0.29541 1.0259 0.29541 0.69824 0 0.69824-0.49414zm7.0415-2.3311-0.69287 0.49414q-1.0527-1.3052-2.6318-2.3955l0.56396-0.49951q0.66602 0.42432 1.4771 1.1333 0.81641 0.70361 1.2837 1.2676z"/><path d="m13.31 0.68213v-4.5869q-1.0796 0.075195-1.7993 0.10742l-0.09668-0.68213 0.7627-0.021484q0.4458-0.51562 0.93994-1.1494-0.76807-0.79492-1.6274-1.5791l0.53711-0.4834q0.05908 0.04834 0.19873 0.17725 0.70361-0.91309 1.0742-1.6597l0.73584 0.27393q-0.54248 0.86475-1.3481 1.8262l0.87012 0.87012q0.85938-1.1494 1.23-1.8584l0.7627 0.29541q-1.1655 1.708-2.5352 3.2549l1.7671-0.09668q-0.17725-0.54785-0.27393-0.80566l0.63916-0.17725q0.45654 1.1655 0.61768 1.7617l-0.69287 0.17725q-0.02685-0.12354-0.10742-0.38135-0.43506 0.053711-0.81641 0.085937v4.6514zm7.8096-4.8394q0 1.5093-0.11816 2.5459-0.11816 1.0312-0.25244 1.3643t-0.49951 0.57471q-0.36523 0.2417-0.84326 0.24707-0.47803 0.005371-1.4663 0.005371l-0.11279-0.75195q0.47803 0.005371 0.83789 0.005371 0.54785 0 0.73584-0.037598 0.19336-0.042969 0.35986-0.20947 0.1665-0.1665 0.26856-0.49951 0.10205-0.33301 0.1665-1.2891 0.06982-0.96143 0.06982-2.5029v-2.4331h-2.938q-0.47266 1.2461-1.0688 2.0947l-0.66064-0.32227q1.085-1.6758 1.4824-3.792l0.84863 0.12354q-0.08594 0.42432-0.37598 1.2676h3.5664zm-2.9434 1.5415q-0.80566-2.1108-1.0957-2.6855l0.73584-0.2793q0.521 1.0151 1.1333 2.6802zm-2.9058 1.8584-0.35986-2.2773 0.74121-0.085937 0.35986 2.2505zm-3.2065 0.47266-0.69824-0.13428q0.43506-1.3213 0.4834-2.6909l0.78418 0.053711q-0.24707 2.0464-0.56934 2.7715z"/><path d="m32.866-0.44043-0.44043 0.71973q-1.5845-0.57471-2.6426-1.2676-1.0527-0.69824-1.9336-1.6006v3.2925h-0.854v-3.2603q-0.8916 0.90234-2.186 1.6812-1.2891 0.77881-2.4009 1.1279l-0.31689-0.60156q1.5146-0.56396 2.7822-1.4502 1.2729-0.88623 1.8101-1.5254h-3.2334v-3.1528h3.5449v-1.0312h-4.2646v-0.66064h4.2646v-1.0366h0.854v1.0366h4.4204v0.66064h-4.4204v1.0312h3.5771v3.1528h-3.2871q0.61768 0.71436 1.9336 1.5737 1.3213 0.854 2.793 1.3105zm-2.2773-3.502v-1.9282h-2.7393v1.9282zm-3.5933 0v-1.9282h-2.7124v1.9282z"/><path d="m43.748-0.97754-0.4834 0.66064q-0.521-0.47266-1.8584-1.332v0.32764q0 0.81641-0.54248 1.2246-0.53711 0.40283-1.8315 0.40283-0.87549 0-1.5039-0.42432-0.62305-0.42432-0.62305-1.1387 0-0.73047 0.59619-1.1816 0.59619-0.45654 1.4395-0.45654 0.82715 0 1.6113 0.19873v-3.1743h-3.7759v-0.7251h3.7759v-1.9712h0.84326v1.9712h2.0034v0.7251h-2.0034v3.4697q1.2515 0.50488 2.3525 1.4233zm-3.1475-0.34375v-0.6499q-0.64453-0.27393-1.6436-0.27393-0.55859 0.00537-0.91846 0.25781-0.35449 0.24707-0.35449 0.6875 0 0.43506 0.41357 0.68213 0.41357 0.2417 0.98291 0.2417 1.52 0 1.52-0.94531zm-5.0811 1.4287-0.80029 0.17725q-0.54785-1.7671-0.54785-3.835 0-2.2559 0.73584-4.8662l0.82178 0.14502q-0.73584 2.4277-0.73584 4.6299 0 1.9443 0.52637 3.749z"/><path d="m49.436 0.064453 0.19873-0.66064q0.6499 0.24707 1.375 0.24707 1.0044 0 1.5791-0.46729 0.57471-0.46729 0.57471-1.3374 0-0.95068-0.77344-1.4448-0.77344-0.49414-2.1538-0.49414-0.92383 0-1.7886 0.2041v3.228q0 1.0312-1.563 1.0312-0.89697 0-1.5791-0.52637-0.67676-0.53174-0.67676-1.3428 0-0.8916 0.84326-1.6758 0.84863-0.78418 2.1162-1.2031v-1.8477h-2.6748v-0.70361h2.6533v-1.7402h0.88086v1.6597h2.8037v0.70361h-2.8037v1.6973q0.87549-0.18799 1.7725-0.18799 1.6113 0 2.707 0.6875t1.0957 1.9121q0 1.2246-0.76807 1.9121-0.7627 0.6875-2.0732 0.6875-1.0957 0-1.7456-0.33838zm-1.8262-3.6953q-0.92383 0.36523-1.5522 0.9292-0.62842 0.56396-0.62842 1.1602 0 0.56934 0.45654 0.87012 0.46191 0.29541 1.0259 0.29541 0.69824 0 0.69824-0.49414zm7.0415-2.3311-0.69287 0.49414q-1.0527-1.3052-2.6318-2.3955l0.56396-0.49951q0.66602 0.42432 1.477 1.1333 0.81641 0.70361 1.2837 1.2676z"/><path d="m57.31 0.68213v-4.5869q-1.0796 0.075195-1.7993 0.10742l-0.09668-0.68213 0.7627-0.021484q0.4458-0.51562 0.93994-1.1494-0.76807-0.79492-1.6274-1.5791l0.53711-0.4834q0.05908 0.04834 0.19873 0.17725 0.70361-0.91309 1.0742-1.6597l0.73584 0.27393q-0.54248 0.86475-1.3481 1.8262l0.87012 0.87012q0.85938-1.1494 1.23-1.8584l0.7627 0.29541q-1.1655 1.708-2.5352 3.2549l1.7671-0.09668q-0.17725-0.54785-0.27393-0.80566l0.63916-0.17725q0.45654 1.1655 0.61768 1.7617l-0.69287 0.17725q-0.02685-0.12354-0.10742-0.38135-0.43506 0.053711-0.81641 0.085937v4.6514zm7.8096-4.8394q0 1.5093-0.11816 2.5459-0.11816 1.0312-0.25244 1.3643t-0.49951 0.57471q-0.36523 0.2417-0.84326 0.24707-0.47803 0.005371-1.4663 0.005371l-0.11279-0.75195q0.47803 0.005371 0.83789 0.005371 0.54785 0 0.73584-0.037598 0.19336-0.042969 0.35986-0.20947 0.1665-0.1665 0.26856-0.49951 0.10205-0.33301 0.1665-1.2891 0.06982-0.96143 0.06982-2.5029v-2.4331h-2.938q-0.47266 1.2461-1.0688 2.0947l-0.66064-0.32227q1.085-1.6758 1.4824-3.792l0.84863 0.12354q-0.08594 0.42432-0.37598 1.2676h3.5664zm-2.9434 1.5415q-0.80566-2.1108-1.0957-2.6855l0.73584-0.2793q0.521 1.0151 1.1333 2.6802zm-2.9058 1.8584-0.35986-2.2773 0.74121-0.085937 0.35986 2.2505zm-3.2065 0.47266-0.69824-0.13428q0.43506-1.3213 0.4834-2.6909l0.78418 0.053711q-0.24707 2.0464-0.56934 2.7715z"/><path d="m76.866-0.44043-0.44043 0.71973q-1.5845-0.57471-2.6426-1.2676-1.0527-0.69824-1.9336-1.6006v3.2925h-0.854v-3.2603q-0.8916 0.90234-2.186 1.6812-1.2891 0.77881-2.4009 1.1279l-0.31689-0.60156q1.5146-0.56396 2.7822-1.4502 1.2729-0.88623 1.8101-1.5254h-3.2334v-3.1528h3.5449v-1.0312h-4.2646v-0.66064h4.2646v-1.0366h0.854v1.0366h4.4204v0.66064h-4.4204v1.0312h3.5771v3.1528h-3.2871q0.61768 0.71436 1.9336 1.5737 1.3213 0.854 2.793 1.3105zm-2.2773-3.502v-1.9282h-2.7393v1.9282zm-3.5933 0v-1.9282h-2.7124v1.9282z"/><path d="m77.924-0.95605q0-0.58545 0.42432-0.99902 0.42432-0.41357 1.0259-0.41357 0.60156 0 1.0259 0.41357 0.42432 0.41357 0.42432 0.99902 0 0.58545-0.42432 0.99902-0.42432 0.41357-1.0259 0.41357-0.60156 0-1.0259-0.41357-0.42432-0.41357-0.42432-0.99902zm0.62842 0q0 0.33838 0.2417 0.58008 0.2417 0.2417 0.58008 0.2417 0.33838 0 0.58008-0.2417 0.2417-0.2417 0.2417-0.58008t-0.2417-0.58008q-0.2417-0.2417-0.58008-0.2417-0.33838 0-0.58008 0.2417-0.2417 0.2417-0.2417 0.58008z"/></g></g><g transform="translate(56.693 159.94)"><g transform="scale(1,-1)" aria-label="刀一振りで血でマーキングして、あとはそこから、 "><path d="m4.9038-6.585q0 2.6426-1.1333 4.501-1.1279 1.853-3.0991 2.6104l-0.35449-0.61768q1.8799-0.88086 2.7876-2.5566 0.91309-1.6812 0.91309-3.8833v-1.1655h-3.1099v-0.67139h8.8086v1.3911q0 2.1753-0.010742 2.5728-0.032227 1.2407-0.13965 2.1968-0.10205 0.95605-0.26855 1.4932-0.091309 0.29004-0.24707 0.4834-0.15576 0.19336-0.4082 0.34912-0.25244 0.16113-0.56934 0.23096-0.31152 0.075195-1.2676 0.075195-0.59082 0-0.92383-0.010742l-0.14502-0.7627q0.59619 0.010742 1.0259 0.010742 0.56934 0 0.83789-0.04834 0.27393-0.053711 0.50488-0.25244 0.23633-0.2041 0.38135-0.59082 0.14502-0.39209 0.23633-1.2783 0.09668-0.8916 0.09668-2.1699v-3.0186h-3.9155z"/><path d="m11.655-4.4795v-0.7627h9.668v0.7627z"/><path d="m22.306-2.9434-0.13428-0.69824q0.46728-0.09668 1.5039-0.44043v-2.2612h-1.2031v-0.62842h1.2031v-2.1001h0.79492v2.1001h0.91846v0.62842h-0.91846v1.9873q0.64453-0.23096 0.93457-0.35986l0.10742 0.56934q-0.32226 0.18262-1.042 0.46729v3.5718q0 0.32227-0.26318 0.51025-0.26318 0.18799-0.62305 0.18799h-1.0312l-0.09131-0.6875h0.83252q0.38135 0 0.38135-0.34375v-2.9434q-0.90772 0.32227-1.3696 0.44043zm4.3882 3.5449-0.14502-0.68213q0.32764-0.032227 1.0742-0.13428v-3.9961h-0.95068q-0.09131 2.9487-1.1333 4.7534l-0.59619-0.35449q0.44043-0.79492 0.70898-2.0571 0.26855-1.2622 0.26855-2.6479v-4.1519h6.3701v0.64453h-5.6074v3.1851h5.5537v0.62842h-2.0356q0.15576 0.96143 0.51562 1.7939 0.70898-0.52637 1.1602-0.97754l0.51562 0.4834q-0.47266 0.41357-1.3911 1.0527 0.67139 1.144 1.7295 1.9658l-0.56396 0.54785q-1.1494-0.87012-1.8423-2.1699-0.69287-1.2998-0.84863-2.6963h-1.0688v3.8887q1.3965-0.19336 1.896-0.31152l0.05908 0.61768q-0.39746 0.11279-1.6597 0.32227-1.2568 0.20947-2.0088 0.29541zm0.67139-6.7676v-0.63916h4.5547v0.63916z"/><path d="m36.862 0.61768-0.19873-0.70361q2.3096-0.18262 3.5342-1.0259 1.2246-0.84326 1.2246-3.1045-0.0054-1.5845-0.49414-2.4224-0.4834-0.84326-1.2944-0.84326-0.76807 0.00537-1.5845 0.50488-0.81104 0.49414-1.3804 1.6704-0.56934 1.1763-0.56396 2.9058l-0.7627 0.04834q-0.19873-1.2354-0.19873-2.7769 0-1.9712 0.31152-3.5933l0.84863 0.075195q-0.35986 1.9443-0.42969 3.5771h0.0752q0.39209-1.4609 1.4395-2.2935 1.0527-0.83789 2.2183-0.84326 1.2407 0 1.9604 1.042 0.71973 1.042 0.71973 2.9917 0 2.5137-1.375 3.5771-1.375 1.0635-4.0498 1.2139z"/><path d="m53.937-6.9878h-2.6909q-0.98291 0.41895-1.9175 1.5361-0.9292 1.1118-0.9292 2.3149 0 0.9292 0.49414 1.5522 0.49414 0.61768 1.3213 0.90771 0.82715 0.28467 2.1914 0.28467 0.31689 0 0.6499-0.016113l-0.05371 0.79492h-0.02685q-0.99365 0-1.6489-0.037598-0.65528-0.032227-1.3804-0.26318-0.7251-0.22559-1.2783-0.69287-0.55322-0.46729-0.82178-1.0796t-0.26856-1.3857q0-1.0796 0.65527-2.1377 0.66064-1.0635 1.7402-1.7993h-5.3872v-0.71436h9.3511zm0.23096 1.9604-0.61768 0.25244q-0.35986-0.83252-0.76807-1.4824l0.56934-0.2793q0.37061 0.58008 0.81641 1.5093zm-1.563 0.32764-0.61768 0.2793q-0.38672-0.87012-0.77881-1.5093l0.58008-0.26318q0.46728 0.7251 0.81641 1.4932z"/><path d="m55.36 0.39209v-0.6499h0.92383v-6.7354h3.1152q0.56934-1.085 0.84326-2.0732l0.88623 0.15576q-0.2793 0.65527-0.89697 1.9175h4.4526v6.7354h0.92383v0.6499zm1.7402-0.6499h1.6597v-6.0962h-1.6597zm2.4814 0h1.6919v-6.0962h-1.6919zm2.4922 0h1.7939v-6.0962h-1.7939z"/><path d="m75.937-6.9878h-2.6909q-0.98291 0.41895-1.9175 1.5361-0.9292 1.1118-0.9292 2.3149 0 0.9292 0.49414 1.5522 0.49414 0.61768 1.3213 0.90771 0.82715 0.28467 2.1914 0.28467 0.31689 0 0.6499-0.016113l-0.05371 0.79492h-0.02685q-0.99365 0-1.6489-0.037598-0.65528-0.032227-1.3804-0.26318-0.7251-0.22559-1.2783-0.69287-0.55322-0.46729-0.82178-1.0796t-0.26856-1.3857q0-1.0796 0.65527-2.1377 0.66064-1.0635 1.7402-1.7993h-5.3872v-0.71436h9.3511zm0.23096 1.9604-0.61768 0.25244q-0.35986-0.83252-0.76807-1.4824l0.56934-0.2793q0.37061 0.58008 0.81641 1.5093zm-1.563 0.32764-0.61768 0.2793q-0.38672-0.87012-0.77881-1.5093l0.58008-0.26318q0.46728 0.7251 0.81641 1.4932z"/><path d="m85.019 0.010742-0.84863 0.4834q-1.9121-2.5942-5.0703-4.6299l0.59619-0.56934q1.4233 0.854 2.5835 1.8638 2.8359-2.0786 4.1357-4.2646h-8.7549v-0.75732h9.625l0.4082 0.37061q-1.5791 2.895-4.8125 5.1992 0.83252 0.79492 2.1377 2.3042z"/><path d="m97.454-3.5557h-8.8838v-0.79492h8.8838z"/><path d="m109.22-3.1689-4.5332 0.44043 0.29541 3.2817-0.92383 0.085938-0.29541-3.2764-4.7749 0.46191-0.07519-0.78418 4.7803-0.46729-0.23632-2.6802-4.082 0.33301-0.04834-0.77881 4.0605-0.32764-0.1665-1.8208 0.91308-0.10742 0.17188 1.853 3.9102-0.31689 0.0537 0.77344-3.894 0.31689 0.2417 2.6694 4.544-0.4458z"/><path d="m115.29-6.2251-0.60693 0.70361q-1.9175-1.1816-3.8242-1.9927l0.46192-0.67139q2.0088 0.75195 3.9692 1.9604zm4.6836 1.3643q-0.90235 1.5737-2.3418 2.7231-1.4394 1.144-2.9971 1.708-1.5522 0.55859-3.6577 0.78418l-0.18799-0.82715q1.751-0.17725 3.1367-0.63916 1.3857-0.46729 2.3472-1.1226 0.9668-0.66064 1.6274-1.3052 0.66064-0.6499 1.3374-1.7832z"/><path d="m125.62-8.6689q-0.15576 0.51025-0.4458 1.1011h5.21l-0.043 0.74658q-0.0161 0.32227-0.27393 1.2515-0.1665 0.59619-0.41357 1.1978-0.2417 0.60156-0.63916 1.2461-0.39746 0.64453-0.96143 1.2139-0.55859 0.56934-1.3052 1.042-0.74658 0.46729-1.7295 0.83252-0.97754 0.36523-2.127 0.59082l-0.31689-0.77344q3.0991-0.60156 4.7158-2.2183 1.6221-1.6167 2.0356-4.3452h-4.5762q-0.63379 1.042-1.5737 1.9766-0.93457 0.9292-1.9551 1.52l-0.50488-0.59619q1.4233-0.90234 2.4814-2.2988 1.0581-1.4019 1.4341-2.6157zm5.7417 0.46191-0.61768 0.25244q-0.35986-0.83789-0.76807-1.4824l0.56397-0.26318q0.42432 0.65527 0.82178 1.4932zm-1.5737 0.19873-0.61231 0.27393q-0.34912-0.78955-0.77344-1.4717l0.58545-0.26318q0.47266 0.73584 0.8003 1.4609z"/><path d="m141.76-3.7598q-0.60693 2.1484-1.7886 3.1582-1.1816 1.0098-3.04 1.0098-0.7251 0-1.2891-0.14502-0.56397-0.14502-0.9668-0.42969-0.40283-0.29004-0.64453-0.71973-0.2417-0.43506-0.31152-0.93994-0.0645-0.50488-0.0645-1.6704 0-1.9819 0.23633-4.8662h0.88086q-0.28467 2.7661-0.28467 4.9092 0 0.74658 0.0322 1.2622 0.0376 0.51025 0.31152 0.94531 0.2793 0.43506 0.82715 0.66064t1.3589 0.22559q1.4556 0 2.4224-0.81641 0.9668-0.82178 1.5684-2.8628z"/><path d="m151.94-6.9878h-2.6909q-0.98291 0.41895-1.9121 1.5361-0.9292 1.1118-0.9292 2.3149 0 0.9292 0.49414 1.5522 0.49414 0.61768 1.3159 0.90771 0.82715 0.28467 2.1968 0.28467 0.31152 0 0.64453-0.016113l-0.0537 0.79492h-0.0269q-0.99365 0-1.6489-0.037598-0.6499-0.032227-1.3804-0.26318-0.7251-0.22559-1.2783-0.69287-0.55323-0.46729-0.82178-1.0796-0.26856-0.6123-0.26856-1.3857 0-1.0796 0.66065-2.1377 0.66064-1.0635 1.7349-1.7993h-5.3872v-0.71436h9.3511z"/><path d="m155.75 0.053711-0.73584 0.47266q-0.69825-1.1494-1.6704-2.2881l0.62841-0.44043q1.1763 1.3911 1.7778 2.2559z"/><path d="m168.85 0.44043-0.14502-0.66064q2.0464-0.021484 3.1528-0.62305 1.1118-0.60693 1.1172-1.7617 0-0.71973-0.54248-1.2354-0.53711-0.51562-1.4717-0.75732-0.70898 1.8208-2.229 3.2227-1.52 1.3965-3.0884 1.3965-0.73047 0-1.1279-0.4082-0.39746-0.41357-0.39746-1.1602 0-1.0527 0.81104-1.9658 0.8164-0.91846 2.1001-1.4287-0.0161-0.41895-0.0161-0.83252 0-0.41895 0.0161-0.81641h-2.6587v-0.70361h2.6963q0.0537-0.80566 0.11816-1.4824l0.8379 0.010742q-0.0698 0.57471-0.13428 1.4395h4.9629v0.70361h-5.0112q-0.0376 0.61768-0.0376 1.1279l5e-3 0.30078q0.84326-0.22021 1.7241-0.22021 1.8423 0.00537 3.0615 0.74658 1.2246 0.74121 1.2246 2.0947 0 1.4556-1.3696 2.2344-1.3643 0.77881-3.459 0.77881zm1.3052-5.1777q-0.2793-0.026855-0.55859-0.026855-0.89161 0-1.7671 0.2793 0.0698 1.4448 0.34912 2.6533 1.2354-1.1064 1.9766-2.9058zm-3.083 0.55322q-0.85937 0.41895-1.52 1.1333-0.65527 0.71436-0.65527 1.3804 0 0.97754 0.80566 0.97754 0.84326 0 1.8369-0.64453-0.34375-1.1709-0.46729-2.8467z"/><path d="m184.42 0.18799q-1.5308 0.15576-3.2871 0.15576-0.7627 0-1.6597-0.026856-0.8916-0.026856-1.4717-0.14502-0.57471-0.11816-1.0259-0.42432-0.45117-0.30615-0.66065-0.71436-0.20947-0.4082-0.20947-0.93994 0-1.8369 2.9272-3.083-0.14502-1.6973-0.17188-3.6147h0.8916q-5e-3 0.23096-5e-3 0.48877 0 1.2568 0.10742 2.8037 1.0366-0.38135 3.9585-1.2139l0.22022 0.7627q-0.84864 0.22559-2.648 0.74658-1.794 0.521-2.6802 0.99365-0.88623 0.46729-1.3213 0.99365-0.43506 0.521-0.43506 1.1011 0 0.29004 0.1128 0.52637 0.11279 0.23633 0.35986 0.43506 0.24707 0.19873 0.67139 0.34912 0.42968 0.14502 1.1548 0.17725 0.7251 0.032227 1.5791 0.026856 1.9819 0 3.5933-0.19336z"/><path d="m196.21-0.97754-0.4834 0.66064q-0.521-0.47266-1.8584-1.332v0.32764q0 0.81641-0.54248 1.2246-0.53711 0.40283-1.8316 0.40283-0.87548 0-1.5039-0.42432-0.62305-0.42432-0.62305-1.1387 0-0.73047 0.59619-1.1816 0.59619-0.45654 1.4395-0.45654 0.82714 0 1.6113 0.19873v-3.1743h-3.7759v-0.7251h3.7759v-1.9712h0.84327v1.9712h2.0034v0.7251h-2.0034v3.4697q1.2515 0.50488 2.3525 1.4233zm-3.1475-0.34375v-0.6499q-0.64453-0.27393-1.6436-0.27393-0.55859 0.00537-0.91846 0.25781-0.35449 0.24707-0.35449 0.6875 0 0.43506 0.41357 0.68213 0.41358 0.2417 0.98291 0.2417 1.52 0 1.52-0.94531zm-5.081 1.4287-0.80029 0.17725q-0.54785-1.7671-0.54785-3.835 0-2.2559 0.73583-4.8662l0.82178 0.14502q-0.73584 2.4277-0.73584 4.6299 0 1.9443 0.52637 3.749z"/><path d="m205.44-0.38672-0.0215 0.77344q-0.42432 0.021484-0.83789 0.021484-2.1323 0-3.3193-0.65527-1.1816-0.65527-1.1816-1.9443 0-1.1816 0.95605-1.9551-2.1484 0.15039-3.9907 0.42969l-0.0644-0.7627q0.74121-0.04834 1.3696-0.18262 0.63379-0.13428 1.0205-0.2793 0.38672-0.15039 1.606-0.86475 1.2246-0.71436 2.6694-1.8154-1.0635 0.053711-4.2217 0.053711h-1.3106v-0.73584h6.4131l0.47266 0.51562q-0.70361 0.6875-1.9443 1.4878-1.2407 0.80029-2.4868 1.4072l0.0215 0.075195q1.7886-0.16113 4.6299-0.16113 0.61767 0 1.1978 0.00537l-0.0107 0.7627q-1.0742-0.042969-2.1646-0.042969-1.0742 0-2.0464 0.037598-1.2891 0.71436-1.2891 2.0034 0 1.8584 3.6523 1.8584 0.42969 0 0.88086-0.032227z"/><path d="m216.76-6.9395q-0.27392 0.059082-0.62841 0.19336-0.34912 0.12891-0.58008 0.2417-0.23096 0.10742-1.7832 0.8916l-0.38135-0.53711q0.53711-0.29004 1.6382-0.84863l-0.0215-0.10742q-1.9228 0.032227-5.7686 0.17725l-0.043-0.75195q2.1216-0.080566 5.8169-0.080566 1.1763 0 1.563 0.016113zm0.37598 6.8267q-1.606 0.24707-3.6147 0.24707h-0.63379q-2.5459 0-3.4482-0.51562-0.89697-0.51562-0.89697-1.4771 0-1.1709 1.1011-2.1323l0.58544 0.43506q-0.87011 0.854-0.87011 1.6382 0 0.68213 0.77881 0.98291 0.78418 0.30078 3.1904 0.30078 1.8691 0 3.6738-0.26855z"/><path d="m221.91-7.7236q0 0.4834-0.0537 1.1011h2.0625q0.7627 0 1.1924 0.54785 0.43505 0.54248 0.44043 1.4233-5e-3 2.1699-0.46192 3.5933-0.45654 1.418-1.6006 1.418-0.66602 0-1.8692-0.63379l0.26856-0.68213q0.2793 0.13428 0.80029 0.30615 0.521 0.17188 0.71436 0.17188 0.42969 0 0.6875-0.4458 0.26318-0.45117 0.43506-1.3105 0.17724-0.85938 0.17724-2.0518 0-1.0635-0.28467-1.3481-0.28466-0.28467-0.76269-0.28467h-1.8691q-0.21485 1.3696-0.46729 2.3472-0.25244 0.97754-0.80029 2.0518-0.54248 1.0742-1.3159 1.939l-0.60693-0.44043q0.70361-0.82715 1.3911-2.2988 0.69287-1.4771 0.9292-3.4858h-2.1001v-0.71973h2.186q0.0376-0.37598 0.0376-2.1646h0.87011zm7.0254 4.3452-0.83252 0.22021q-0.73583-2.6909-2.1377-4.1895l0.62842-0.42969q0.74121 0.75732 1.4126 2.0303 0.67675 1.2676 0.92919 2.3687z"/><path d="m238.03-7.2617-0.41895 0.70361q-0.39209-0.18262-1.1816-0.42432-0.78418-0.24707-1.6489-0.47266-0.85938-0.23096-2.648-0.54248l0.2417-0.68213q1.9551 0.32764 3.5127 0.75732t2.1431 0.66064zm-5.6182 7.6807-0.11279-0.73584q3.4482-0.042969 4.646-0.60156 1.1978-0.56396 1.1978-1.5684 0-0.88623-0.62842-1.3643-0.62304-0.4834-1.6812-0.4834-1.2676 0-2.6211 0.55859-1.3482 0.55322-2.0571 1.4126l-0.70362-0.4082q0.69825-1.7939 0.77881-4.3667l0.87012 0.021484q-0.0376 1.4502-0.58008 3.4751 0.73584-0.60693 1.9497-0.99902 1.2192-0.39746 2.272-0.39746 1.5576 0 2.4224 0.65527 0.86475 0.65527 0.86475 1.896 0 1.375-1.4126 2.1431-1.4072 0.7627-4.9629 0.7627z"/><path d="m243.42 0.053711-0.73584 0.47266q-0.69824-1.1494-1.6704-2.2881l0.62842-0.44043q1.1763 1.3911 1.7778 2.2559z"/></g></g><g transform="translate(56.693 142.94)"><g transform="scale(1,-1)" aria-label="はい。串刺し。 "><path d="m10.748-0.97754-0.4834 0.66064q-0.521-0.47266-1.8584-1.332v0.32764q0 0.81641-0.54248 1.2246-0.53711 0.40283-1.8315 0.40283-0.87549 0-1.5039-0.42432-0.62305-0.42432-0.62305-1.1387 0-0.73047 0.59619-1.1816 0.59619-0.45654 1.4395-0.45654 0.82715 0 1.6113 0.19873v-3.1743h-3.7759v-0.7251h3.7759v-1.9712h0.84326v1.9712h2.0034v0.7251h-2.0034v3.4697q1.2515 0.50488 2.3525 1.4233zm-3.1475-0.34375v-0.6499q-0.64453-0.27393-1.6436-0.27393-0.55859 0.00537-0.91846 0.25781-0.35449 0.24707-0.35449 0.6875 0 0.43506 0.41357 0.68213 0.41357 0.2417 0.98291 0.2417 1.52 0 1.52-0.94531zm-5.0811 1.4287-0.80029 0.17725q-0.54785-1.7671-0.54785-3.835 0-2.2559 0.73584-4.8662l0.82178 0.14502q-0.73584 2.4277-0.73584 4.6299 0 1.9443 0.52637 3.749z"/><path d="m16.414-2.8359q-0.18262 0.51025-0.58008 1.2461-0.39209 0.73584-0.80566 1.23-0.4082 0.48877-0.84863 0.48877-0.26856 0-0.47803-0.12891-0.20947-0.12891-0.54785-0.49951t-0.62305-1.0151q-0.2793-0.6499-0.41357-1.3589-0.13428-0.70898-0.13428-1.3804 0-0.60156 0.12354-1.7026 0.12891-1.1548 0.13965-1.6865h0.90234q-0.02149 0.4834-0.17188 1.6865-0.13428 1.0742-0.13428 1.6973 0 0.93457 0.19336 1.6812 0.19873 0.74121 0.56934 1.2783 0.37598 0.53711 0.54785 0.53711 0.2793 0 0.75195-0.7627 0.47266-0.76807 0.84863-1.6543zm4.9146 1.5791-0.90234 0.026855v-0.09668q0-1.5898-0.51562-3.0938-0.51562-1.5039-1.4717-2.6855l0.66064-0.41895q2.1914 2.5083 2.229 6.2681z"/><path d="m22.924-0.95605q0-0.58545 0.42432-0.99902 0.42432-0.41357 1.0259-0.41357 0.60156 0 1.0259 0.41357 0.42432 0.41357 0.42432 0.99902 0 0.58545-0.42432 0.99902-0.42432 0.41357-1.0259 0.41357-0.60156 0-1.0259-0.41357-0.42432-0.41357-0.42432-0.99902zm0.62842 0q0 0.33838 0.2417 0.58008 0.2417 0.2417 0.58008 0.2417 0.33838 0 0.58008-0.2417 0.2417-0.2417 0.2417-0.58008t-0.2417-0.58008q-0.2417-0.2417-0.58008-0.2417-0.33838 0-0.58008 0.2417-0.2417 0.2417-0.2417 0.58008z"/><path d="m42.303-0.90234v-0.37061h-3.4536v1.9766h-0.83252v-1.9766h-3.3999v0.33838h-0.79492v-3.4106h4.1948v-0.99902h-3.6094v-2.7822h3.6094v-0.98828h0.83252v0.98828h3.8833v2.7822h-3.8833v0.99902h4.2754v3.4429zm-0.3706-6.644h-3.083v1.6167h3.083zm-3.9155 0h-2.8145v1.6167h2.8145zm4.2861 3.792h-3.4536v1.8638h3.4536zm-4.2861 0h-3.3999v1.8638h3.3999z"/><path d="m53.007 0.54248h-1.2568l-0.11279-0.74658h1.0581q0.46728 0 0.46728-0.41895v-8.4702h0.83252v8.8086q0 0.36523-0.29541 0.59619-0.29004 0.23096-0.69287 0.23096zm-8.3789-0.84863-0.39209-0.49414q0.82715-0.52637 1.7456-1.4717 0.91846-0.95068 1.2461-1.6919v-1.7402h-1.4126v2.5889h-0.78418v-3.1743h2.1968v-1.1118h-2.5996v-0.63916h2.5996v-1.0312h0.81104v1.0312h2.5244v0.63916h-2.5244v1.1118h2.3794v2.3042q0 0.32764-0.24707 0.52637-0.24707 0.19873-0.55322 0.19873h-0.91846l-0.09131-0.66064h0.63916q0.38135 0 0.38135-0.33838v-1.4448h-1.5898v2.1431q0.4082 0.45654 1.1279 1.0366 0.71973 0.57471 1.2031 0.85938l-0.38135 0.61768q-1.1064-0.7251-1.9497-1.6113v3.3516h-0.81104v-3.3462q-1.1279 1.4556-2.5996 2.3472zm6.6978-1.6382v-6.3755h0.79492v6.3755z"/><path d="m65.2-3.7598q-0.60693 2.1484-1.7886 3.1582-1.1816 1.0098-3.04 1.0098-0.7251 0-1.2891-0.14502-0.56396-0.14502-0.9668-0.42969-0.40283-0.29004-0.64453-0.71973-0.2417-0.43506-0.31152-0.93994-0.06445-0.50488-0.06445-1.6704 0-1.9819 0.23633-4.8662h0.88086q-0.28467 2.7661-0.28467 4.9092 0 0.74658 0.03223 1.2622 0.0376 0.51025 0.31152 0.94531 0.2793 0.43506 0.82715 0.66064 0.54785 0.22559 1.3589 0.22559 1.4556 0 2.4224-0.81641 0.9668-0.82178 1.5684-2.8628z"/><path d="m66.924-0.95605q0-0.58545 0.42432-0.99902 0.42432-0.41357 1.0259-0.41357 0.60156 0 1.0259 0.41357 0.42432 0.41357 0.42432 0.99902 0 0.58545-0.42432 0.99902-0.42432 0.41357-1.0259 0.41357-0.60156 0-1.0259-0.41357-0.42432-0.41357-0.42432-0.99902zm0.62842 0q0 0.33838 0.2417 0.58008 0.2417 0.2417 0.58008 0.2417 0.33838 0 0.58008-0.2417 0.2417-0.2417 0.2417-0.58008t-0.2417-0.58008q-0.2417-0.2417-0.58008-0.2417-0.33838 0-0.58008 0.2417-0.2417 0.2417-0.2417 0.58008z"/></g></g><g transform="translate(56.693 125.94)"><g transform="scale(1,-1)" aria-label="ちょっとま死んどきなさい。 "><path d="m3.2441 0.31689-0.032227-0.76807q1.0205 0.11279 2.1377 0.11279 1.5952 0.005371 2.6211-0.50488 1.0312-0.51025 1.0312-1.4771 0-0.53174-0.17188-0.83252-0.17188-0.30078-0.6875-0.57471-0.51025-0.27393-1.3857-0.27393-1.1172 0.00537-2.3579 0.42969-1.2354 0.42432-1.9229 1.085l-0.53711-0.52637q1.0742-1.3804 1.4609-3.3462h-2.707v-0.71436h2.8252q0.13428-0.93457 0.13428-1.5737l0.88086 0.010742q-0.032226 0.82178-0.12354 1.563h5.9512v0.71436h-6.0693q-0.23096 1.3374-0.9668 2.5405 0.69287-0.37598 1.665-0.60693 0.97217-0.23096 1.8154-0.23096 1.332 0 2.1968 0.60693t0.86475 1.6865q0 1.3696-1.1924 2.0732-1.1924 0.69824-3.3354 0.69824-1.1924 0-2.0947-0.091309z"/><path d="m19.857-0.46191-0.47266 0.62842q-1.375-1.0796-2.7339-1.6221v0.4458q-0.0054 0.79492-0.41358 1.1655-0.40283 0.37598-1.3374 0.37598-1.085 0-1.6973-0.38135-0.60693-0.37598-0.60693-1.1064 0-0.71973 0.64453-1.1011 0.64453-0.38672 1.665-0.38672 0.45654 0 0.93457 0.085937v-4.7373h0.80566v1.6597h2.981v0.67139h-2.981v2.605q1.4985 0.46191 3.2119 1.6973zm-3.98-1.2461q-0.51025-0.12891-0.97217-0.12891-0.60693 0-1.085 0.23633-0.47803 0.23096-0.47803 0.63916 0 0.39209 0.4082 0.6123 0.41357 0.21484 0.9668 0.21484 0.66602 0 0.91309-0.21484t0.24707-0.6499z"/><path d="m25.201 0.14502-0.11816-0.69287q2.7607-0.075195 3.937-0.74658 1.1763-0.67139 1.1763-1.9175 0-0.93994-0.6123-1.5093-0.60693-0.56934-1.5791-0.56934-1.3535 0-4.7373 0.67139l-0.11279-0.7251 2.6265-0.4082q1.4878-0.23096 2.1914-0.23096 1.3535 0 2.1914 0.74658 0.83789 0.74121 0.83789 2.0088 0 1.6006-1.3267 2.4438-1.3213 0.84326-4.4741 0.9292z"/><path d="m42.958 0.18799q-1.5308 0.15576-3.2871 0.15576-0.7627 0-1.6597-0.026856-0.8916-0.026855-1.4717-0.14502-0.57471-0.11816-1.0259-0.42432-0.45117-0.30615-0.66064-0.71436-0.20947-0.4082-0.20947-0.93994 0-1.8369 2.9272-3.083-0.14502-1.6973-0.17188-3.6147h0.8916q-0.0054 0.23096-0.0054 0.48877 0 1.2568 0.10742 2.8037 1.0366-0.38135 3.9585-1.2139l0.22022 0.7627q-0.84863 0.22559-2.6479 0.74658-1.7939 0.521-2.6802 0.99365-0.88623 0.46729-1.3213 0.99365-0.43506 0.521-0.43506 1.1011 0 0.29004 0.11279 0.52637 0.11279 0.23633 0.35986 0.43506 0.24707 0.19873 0.67139 0.34912 0.42969 0.14502 1.1548 0.17725 0.7251 0.032227 1.5791 0.026856 1.9819 0 3.5933-0.19336z"/><path d="m53.947-0.81641-0.46191 0.71436q-1.2676-0.95068-3.2334-1.6812v0.79492q0 1.3857-2.5566 1.3857-1.0151 0-1.751-0.43506-0.73584-0.44043-0.73584-1.2031 0-0.78955 0.69824-1.2515 0.69824-0.46729 1.6812-0.46729 1.0312 0 1.8047 0.19873v-1.5845h-4.0713v-0.70361h4.0713v-1.6382h-4.356v-0.70361h4.356v-1.1548h0.83252v1.1548h3.9854v0.70361h-3.9854v1.6382h3.5234v0.70361h-3.5234v1.7725q2.4707 0.93457 3.7222 1.7563zm-4.5332-0.45117v-0.75732q-0.6875-0.25244-1.8208-0.25244-0.59082 0-1.0903 0.26855-0.49951 0.26855-0.49951 0.70898 0 0.46729 0.49951 0.71436 0.50488 0.2417 1.2622 0.2417 0.7251 0 1.0474-0.11816 0.32764-0.11816 0.46191-0.27393 0.13965-0.15576 0.13965-0.53174z"/><path d="m56.117 0.63916-0.38135-0.54785q1.853-0.98291 2.8521-2.6104-0.66602-0.43506-1.9658-1.1279-0.4082 0.60693-0.80566 1.0474l-0.54248-0.42969q0.81104-0.95068 1.4556-2.2881 0.6499-1.3428 0.86475-2.5029h-1.9712v-0.66064h9.7271v0.66064h-3.2764v2.9917q1.5522-0.67139 2.5137-1.3428l0.54785 0.59619q-1.0957 0.70898-3.0615 1.4556v3.3999q0 0.25244 0.19336 0.39746 0.19873 0.13965 0.9292 0.13965 0.82178 0 1.0474-0.10205t0.28467-0.41357q0.05908-0.31152 0.09131-1.3857l0.71973 0.09668v1.5039q0 0.38135-0.18262 0.6123-0.17725 0.23096-0.51562 0.30615-0.33838 0.080566-1.3374 0.080566-0.99902 0-1.3643-0.080566-0.35986-0.080567-0.53711-0.30078-0.17188-0.22021-0.17188-0.58008v-7.3745h-2.7822q-0.15039 0.70898-0.45117 1.5039h2.4385q-0.04834 2.5513-1.2944 4.3721-1.2407 1.8208-3.0239 2.5835zm2.8252-3.8188q0.49414-1.0742 0.6499-2.4976l-1.853-0.010742q-0.33301 0.75732-0.74658 1.4556 0.87012 0.4082 1.9497 1.0527z"/><path d="m71.393-8.2715q-0.6875 1.375-1.9927 4.1465 0.7251-0.47803 1.3374-0.47803 0.57471 0.00537 0.90234 0.33838 0.32764 0.33301 0.45117 1.2461 0.11816 1.2998 0.22022 1.7295 0.10205 0.42432 0.40283 0.65527 0.30615 0.23096 0.854 0.23096 1.7026 0 2.2559-3.2495l0.76807 0.2417q-0.44043 2.2881-1.187 3.0347-0.74121 0.74121-1.9229 0.74121-1.187 0.005371-1.6006-0.64453-0.4082-0.6499-0.49951-1.7671l-0.09668-0.98291q-0.0376-0.38135-0.23096-0.63379-0.19336-0.25244-0.51562-0.25244-0.53711 0-1.1011 0.47266-0.56396 0.47266-0.83789 1.0957-0.26855 0.61768-1.2246 2.7231l-0.74658-0.25781 1.6919-3.8457 2.2451-4.8071z"/><path d="m86.926 0.18799q-1.5308 0.15576-3.2871 0.15576-1.0044 0-1.8047-0.032227-0.79492-0.032227-1.2192-0.11816-0.41894-0.085938-0.78955-0.25244-0.3706-0.17188-0.6499-0.42969-0.2793-0.26318-0.42432-0.61768-0.13965-0.35986-0.13965-0.80029 0-1.8369 2.9272-3.083-0.14502-1.6973-0.17188-3.6147h0.8916q-0.0054 0.23096-0.0054 0.48877 0 1.2568 0.10742 2.8037 1.042-0.38135 3.9585-1.2139l0.22021 0.7627q-0.854 0.22559-2.6426 0.74658-1.7832 0.51562-2.6748 0.98291-0.88623 0.46729-1.3267 0.99365-0.44043 0.52637-0.44043 1.1118 0 0.53711 0.39746 0.89697 0.39746 0.35986 1.0366 0.48877 0.64453 0.12891 2.4385 0.12891 1.9873 0 3.5986-0.19336zm0.56934-7.9438-0.61768 0.25244q-0.35449-0.83252-0.76807-1.4824l0.58008-0.26318q0.43506 0.71436 0.80566 1.4932zm-1.563 0.33301-0.6123 0.27393q-0.38672-0.87012-0.78418-1.5093l0.58545-0.26318q0.46728 0.7251 0.81104 1.4985z"/><path d="m96.911-2.6426-0.59082 0.59619q-0.58545-0.39209-1.4448-0.62305-0.85938-0.23633-1.6597-0.23633-1.7402 0-2.3364 0.36523-0.59082 0.35986-0.59082 0.99902 0 0.55859 0.6875 0.87549 0.6875 0.31689 2.7017 0.31689 1.7832 0 3.1582-0.22559l0.02148 0.77344q-1.1978 0.19873-3.2012 0.19873-2.3149 0-3.271-0.49414-0.95606-0.49951-0.95606-1.4448 0-1.0098 0.90772-1.5361 0.91309-0.53174 2.4385-0.53174 1.6436 0 2.8735 0.46191-0.53711-0.69287-0.99365-1.5522h-5.5645v-0.69287h5.2314q-0.29541-0.66602-0.48877-1.2837h-4.4365v-0.69287h4.2163q-0.17188-0.6875-0.26318-1.3428l0.854-0.075195q0.15576 0.96143 0.27393 1.418h3.1045v0.69287h-2.9111q0.14502 0.45117 0.4834 1.2837h2.9434v0.69287h-2.5942q0.4458 0.82715 1.4072 2.0571z"/><path d="m102.64-8.5454q-0.0376 0.84326-0.13428 1.5737h2.3901v0.71436h-2.4976q-0.55322 3.2227-2.2773 5.4785l-0.62842-0.46191q1.5254-2.0625 2.0571-5.0166h-1.7563v-0.71436h1.8691q0.10742-0.78418 0.12891-1.5845zm6.8965 2.9917-0.66065 0.52637q-0.99365-1.2568-2.75-2.5835l0.4834-0.53174q1.5093 0.88086 2.9272 2.5889zm-0.0215 4.6514-0.42969 0.68213q-1.1279-0.91309-1.998-1.3374v0.51025q0 1.5791-2.3203 1.5791-0.95605 0-1.6328-0.4082-0.67138-0.4082-0.67138-1.1279 0-0.78955 0.68212-1.2461 0.6875-0.45654 1.6758-0.45654 0.76806 0 1.418 0.12891v-2.9111h0.84864v3.1636q1.0688 0.4082 2.4277 1.4233zm-3.2549-0.9668q-0.71436-0.18799-1.4394-0.18799-0.62842 0-1.1011 0.26318-0.47265 0.25781-0.47265 0.71436 0 0.91309 1.6274 0.91309 1.3857 0 1.3857-0.90234z"/><path d="m119.4 0q-1.2568 0.33838-3.0454 0.33838-4.7212 0-4.7212-2.1968 0-1.1387 0.97754-1.7725 0.97754-0.63916 2.4653-0.63916 1.23 0 2.4976 0.23096-0.49414-0.69824-1.2139-2.0894h-5.2422v-0.70361h4.9092q-0.32764-0.80566-0.54248-1.7241l0.83789-0.12354q0.23633 1.0474 0.56933 1.8477h3.5449v0.70361h-3.2119q0.99903 1.9282 1.9551 2.5996l-0.39209 0.63379q-1.2783-0.69287-3.6631-0.69287-1.1172 0-1.8691 0.4458-0.75195 0.4458-0.75195 1.2515 0 1.5039 3.8833 1.5039 1.477 0 2.852-0.33838z"/><path d="m126.41-2.8359q-0.18261 0.51025-0.58008 1.2461-0.39209 0.73584-0.80566 1.23-0.4082 0.48877-0.84863 0.48877-0.26856 0-0.47803-0.12891t-0.54785-0.49951-0.62305-1.0151q-0.2793-0.6499-0.41357-1.3589-0.13428-0.70898-0.13428-1.3804 0-0.60156 0.12354-1.7026 0.1289-1.1548 0.13964-1.6865h0.90235q-0.0215 0.4834-0.17188 1.6865-0.13427 1.0742-0.13427 1.6973 0 0.93457 0.19335 1.6812 0.19874 0.74121 0.56934 1.2783 0.37598 0.53711 0.54785 0.53711 0.2793 0 0.75196-0.7627 0.47265-0.76807 0.84863-1.6543zm4.9146 1.5791-0.90234 0.026855v-0.09668q0-1.5898-0.51563-3.0938-0.51562-1.5039-1.4717-2.6855l0.66065-0.41895q2.1914 2.5083 2.229 6.2681z"/><path d="m132.92-0.95605q0-0.58545 0.42431-0.99902 0.42432-0.41357 1.0259-0.41357 0.60157 0 1.0259 0.41357 0.42432 0.41357 0.42432 0.99902 0 0.58545-0.42432 0.99902-0.42431 0.41357-1.0259 0.41357-0.60156 0-1.0259-0.41357-0.42431-0.41357-0.42431-0.99902zm0.62842 0q0 0.33838 0.2417 0.58008 0.24169 0.2417 0.58007 0.2417t0.58008-0.2417 0.2417-0.58008-0.2417-0.58008-0.58008-0.2417-0.58007 0.2417q-0.2417 0.2417-0.2417 0.58008z"/></g></g><g transform="translate(56.693 108.94)"><g transform="scale(1,-1)" aria-label="私ももうちょっと、死ぬから。 "><path d="m0.69824-1.1064-0.49414-0.49414q0.60156-0.54785 1.3213-1.6489 0.71973-1.1064 1.0366-1.9819h-1.9766v-0.66602h2.0786v-1.9282q-1.3804 0.20947-1.9766 0.23633l-0.14502-0.6499q3.0293-0.27393 4.4956-0.82178l0.35986 0.67676q-0.61768 0.19873-1.896 0.42432v2.0625h1.6489v0.66602h-1.6489v0.58545q0.59082 0.59082 1.4126 1.1172l-0.37061 0.66064q-0.6499-0.51562-1.042-0.90771v4.4419h-0.83789v-4.2969q-0.92383 1.5684-1.9658 2.5244zm8.9697 0.81641q-2.5244 0.41895-5.4248 0.62305l-0.15576-0.73047 0.63379-0.042969q0.51562-1.5415 1.1816-4.313 0.67139-2.7769 0.84326-4.1733l0.89697 0.12354q-0.21484 1.2891-0.90234 3.9692t-1.2246 4.3291q2.1538-0.19336 3.9048-0.43506-0.9668-2.5137-1.4502-3.3516l0.78418-0.29004q0.34375 0.63916 1.0688 2.3848 0.7251 1.7456 0.96143 2.519l-0.83252 0.23633q-0.10742-0.37061-0.28467-0.84863z"/><path d="m18.702-3.6953h-3.7383q-0.25781 1.52-0.25781 2.0142 0 1.3857 2.519 1.3857 3.083 0 3.083-1.5952 0-1.1763-0.61768-2.2881l0.68213-0.23096q0.7627 1.3267 0.7627 2.6157 0 2.2344-3.9102 2.2344-3.3408 0-3.3408-2.1646 0-0.61768 0.20947-1.9712h-2.1592v-0.71436h2.2827q0.11816-0.6875 0.39209-1.9497h-2.605v-0.7251h2.7661q0.11279-0.51562 0.37598-1.5522l0.85938 0.053711-0.35449 1.4985h4.8555v0.7251h-5.022q-0.22559 1.0098-0.39746 1.9497h3.6147z"/><path d="m29.702-3.6953h-3.7383q-0.25781 1.52-0.25781 2.0142 0 1.3857 2.519 1.3857 3.083 0 3.083-1.5952 0-1.1763-0.61768-2.2881l0.68213-0.23096q0.7627 1.3267 0.7627 2.6157 0 2.2344-3.9102 2.2344-3.3408 0-3.3408-2.1646 0-0.61768 0.20947-1.9712h-2.1592v-0.71436h2.2827q0.11816-0.6875 0.39209-1.9497h-2.605v-0.7251h2.7661q0.11279-0.51562 0.37598-1.5522l0.85938 0.053711-0.35449 1.4985h4.8555v0.7251h-5.022q-0.22559 1.0098-0.39746 1.9497h3.6147z"/><path d="m41.374-7.8525-0.18799 0.75732q-2.1108-0.41357-6.0854-0.49414l0.0376-0.7251q1.1816 0 2.5459 0.085937 1.3643 0.080566 3.6899 0.37598zm-5.3496 8.2822-0.15039-0.70361q2.3794-0.1665 3.6792-0.73047 1.2998-0.56396 1.7241-1.2085 0.42432-0.6499 0.42432-1.5361 0-0.76807-0.6123-1.2031-0.6123-0.44043-1.563-0.44043-0.51025 0-1.1118 0.059082-0.60156 0.053711-1.0044 0.11816-0.40283 0.064453-2.9326 0.52637l-0.14502-0.76807 2.1001-0.34375q0.99365-0.1665 1.7456-0.23633 0.75732-0.069824 1.3589-0.069824 1.375 0 2.1914 0.62842 0.82178 0.62305 0.82178 1.7725 0 1.9336-1.7295 2.9863-1.7241 1.0527-4.7964 1.1494z"/><path d="m47.244 0.31689-0.03223-0.76807q1.0205 0.11279 2.1377 0.11279 1.5952 0.005371 2.6211-0.50488 1.0312-0.51025 1.0312-1.4771 0-0.53174-0.17188-0.83252-0.17188-0.30078-0.6875-0.57471-0.51025-0.27393-1.3857-0.27393-1.1172 0.00537-2.3579 0.42969-1.2354 0.42432-1.9229 1.085l-0.53711-0.52637q1.0742-1.3804 1.4609-3.3462h-2.707v-0.71436h2.8252q0.13428-0.93457 0.13428-1.5737l0.88086 0.010742q-0.03223 0.82178-0.12354 1.563h5.9512v0.71436h-6.0693q-0.23096 1.3374-0.9668 2.5405 0.69287-0.37598 1.665-0.60693 0.97217-0.23096 1.8154-0.23096 1.332 0 2.1968 0.60693t0.86475 1.6865q0 1.3696-1.1924 2.0732-1.1924 0.69824-3.3354 0.69824-1.1924 0-2.0947-0.091309z"/><path d="m63.857-0.46191-0.47266 0.62842q-1.375-1.0796-2.7339-1.6221v0.4458q-0.0054 0.79492-0.41358 1.1655-0.40283 0.37598-1.3374 0.37598-1.085 0-1.6973-0.38135-0.60693-0.37598-0.60693-1.1064 0-0.71973 0.64453-1.1011 0.64453-0.38672 1.665-0.38672 0.45654 0 0.93457 0.085937v-4.7373h0.80566v1.6597h2.981v0.67139h-2.981v2.605q1.4985 0.46191 3.2119 1.6973zm-3.98-1.2461q-0.51025-0.12891-0.97217-0.12891-0.60693 0-1.085 0.23633-0.47803 0.23096-0.47803 0.63916 0 0.39209 0.4082 0.6123 0.41357 0.21484 0.9668 0.21484 0.66602 0 0.91309-0.21484 0.24707-0.21484 0.24707-0.6499z"/><path d="m69.201 0.14502-0.11816-0.69287q2.7607-0.075195 3.937-0.74658 1.1763-0.67139 1.1763-1.9175 0-0.93994-0.6123-1.5093-0.60693-0.56934-1.5791-0.56934-1.3535 0-4.7373 0.67139l-0.11279-0.7251 2.6265-0.4082q1.4878-0.23096 2.1914-0.23096 1.3535 0 2.1914 0.74658 0.83789 0.74121 0.83789 2.0088 0 1.6006-1.3267 2.4438-1.3213 0.84326-4.4741 0.9292z"/><path d="m86.958 0.18799q-1.5308 0.15576-3.2871 0.15576-0.7627 0-1.6597-0.026856-0.8916-0.026855-1.4717-0.14502-0.57471-0.11816-1.0259-0.42432-0.45117-0.30615-0.66064-0.71436-0.20947-0.4082-0.20947-0.93994 0-1.8369 2.9272-3.083-0.14502-1.6973-0.17188-3.6147h0.8916q-0.0054 0.23096-0.0054 0.48877 0 1.2568 0.10742 2.8037 1.0366-0.38135 3.9585-1.2139l0.22022 0.7627q-0.84863 0.22559-2.6479 0.74658-1.7939 0.521-2.6802 0.99365-0.88623 0.46729-1.3213 0.99365-0.43506 0.521-0.43506 1.1011 0 0.29004 0.11279 0.52637 0.11279 0.23633 0.35986 0.43506 0.24707 0.19873 0.67139 0.34912 0.42969 0.14502 1.1548 0.17725 0.7251 0.032227 1.5791 0.026856 1.9819 0 3.5933-0.19336z"/><path d="m91.287 0.053711-0.73584 0.47266q-0.69824-1.1494-1.6704-2.2881l0.62842-0.44043q1.1763 1.3911 1.7778 2.2559z"/><path d="m100.12 0.63916-0.38135-0.54785q1.853-0.98291 2.852-2.6104-0.66601-0.43506-1.9658-1.1279-0.4082 0.60693-0.80566 1.0474l-0.54248-0.42969q0.81103-0.95068 1.4556-2.2881 0.6499-1.3428 0.86475-2.5029h-1.9712v-0.66064h9.7271v0.66064h-3.2764v2.9917q1.5522-0.67139 2.5137-1.3428l0.54785 0.59619q-1.0957 0.70898-3.0615 1.4556v3.3999q0 0.25244 0.19336 0.39746 0.19873 0.13965 0.9292 0.13965 0.82178 0 1.0474-0.10205 0.22559-0.10205 0.28467-0.41357 0.0591-0.31152 0.0913-1.3857l0.71973 0.09668v1.5039q0 0.38135-0.18262 0.6123-0.17725 0.23096-0.51563 0.30615-0.33838 0.080566-1.3374 0.080566t-1.3643-0.080566q-0.35986-0.080566-0.53711-0.30078-0.17187-0.22021-0.17187-0.58008v-7.3745h-2.7822q-0.15039 0.70898-0.45117 1.5039h2.4385q-0.0483 2.5513-1.2944 4.3721-1.2407 1.8208-3.0239 2.5835zm2.8252-3.8188q0.49414-1.0742 0.64991-2.4976l-1.853-0.010742q-0.33301 0.75732-0.74658 1.4556 0.87011 0.4082 1.9497 1.0527z"/><path d="m112.23-5.4141q-0.23633-1.0312-0.33838-2.2666l0.854-0.085937q0.0698 0.96143 0.2417 1.8745 1.1011-0.59082 2.3042-0.75195l5e-3 -0.11279q0.0591-1.187 0.0591-1.8262h0.8916q-0.0161 0.81641-0.10205 1.8853 1.8423 0.016113 2.8628 0.95605 1.0205 0.93457 1.0205 2.6479 0 0.71436-0.18261 1.332 0.48877 0.40283 1.1279 1.0903l-0.59082 0.58545q-0.3169-0.4082-0.85938-0.89697-0.77344 1.3696-2.3149 1.3696-0.78955 0-1.3267-0.38672-0.53174-0.38135-0.53174-1.042 0-0.73584 0.56934-1.2139 0.5747-0.4834 1.3804-0.4834 0.96142 0 1.8101 0.47266 0.0806-0.4082 0.0806-0.83789 0-1.3535-0.83789-2.1377t-2.2505-0.78418h-0.0269q-0.19336 1.606-0.81104 3.0669-0.61767 1.4609-1.4878 2.2935-0.87012 0.83252-1.7671 0.83252-0.83789 0-1.2891-0.58545-0.45117-0.58545-0.45117-1.606 0-0.91846 0.52636-1.8154 0.52637-0.90234 1.4341-1.5737zm0.88623 0.24707q0.4082 1.6328 1.0688 2.6694 0.79493-1.4287 1.042-3.4536-1.1333 0.19336-2.1108 0.78418zm0.62841 3.3569q-0.86474-1.2944-1.3213-2.8628-1.3642 1.1602-1.3642 2.5835-5e-3 0.63916 0.26318 1.0742 0.27393 0.43506 0.75195 0.43506 0.7627 0 1.6704-1.23zm5.1509 0.26318q-0.71435-0.521-1.5415-0.521-0.50488 0-0.88086 0.26318-0.37061 0.25781-0.37061 0.68213 0 0.39209 0.34375 0.60693 0.34912 0.20947 0.87549 0.20947 1.0474 0 1.5737-1.2407z"/><path d="m124.78-7.7236q0 0.4834-0.0537 1.1011h2.0625q0.76269 0 1.1924 0.54785 0.43506 0.54248 0.44043 1.4233-5e-3 2.1699-0.46191 3.5933-0.45655 1.418-1.6006 1.418-0.66602 0-1.8691-0.63379l0.26855-0.68213q0.2793 0.13428 0.8003 0.30615 0.52099 0.17188 0.71435 0.17188 0.42969 0 0.6875-0.4458 0.26319-0.45117 0.43506-1.3105 0.17725-0.85938 0.17725-2.0518 0-1.0635-0.28467-1.3481-0.28467-0.28467-0.7627-0.28467h-1.8691q-0.21484 1.3696-0.46728 2.3472-0.25244 0.97754-0.80029 2.0518-0.54248 1.0742-1.3159 1.939l-0.60694-0.44043q0.70362-0.82715 1.3911-2.2988 0.69287-1.4771 0.9292-3.4858h-2.1001v-0.71973h2.186q0.0376-0.37598 0.0376-2.1646h0.87012zm7.0254 4.3452-0.83252 0.22021q-0.73584-2.6909-2.1377-4.1895l0.62842-0.42969q0.74121 0.75732 1.4126 2.0303 0.67676 1.2676 0.9292 2.3687z"/><path d="m140.9-7.2617-0.41894 0.70361q-0.39209-0.18262-1.1816-0.42432-0.78418-0.24707-1.6489-0.47266-0.85937-0.23096-2.648-0.54248l0.2417-0.68213q1.9551 0.32764 3.5127 0.75732 1.5576 0.42969 2.1431 0.66064zm-5.6182 7.6807-0.11279-0.73584q3.4482-0.042969 4.646-0.60156 1.1978-0.56396 1.1978-1.5684 0-0.88623-0.62842-1.3643-0.62305-0.4834-1.6812-0.4834-1.2676 0-2.6211 0.55859-1.3481 0.55322-2.0571 1.4126l-0.70361-0.4082q0.69824-1.7939 0.77881-4.3667l0.87011 0.021484q-0.0376 1.4502-0.58007 3.4751 0.73584-0.60693 1.9497-0.99902 1.2192-0.39746 2.272-0.39746 1.5576 0 2.4224 0.65527t0.86475 1.896q0 1.375-1.4126 2.1431-1.4072 0.7627-4.9629 0.7627z"/><path d="m143.92-0.95605q0-0.58545 0.42431-0.99902 0.42432-0.41357 1.0259-0.41357 0.60157 0 1.0259 0.41357 0.42432 0.41357 0.42432 0.99902 0 0.58545-0.42432 0.99902-0.42431 0.41357-1.0259 0.41357-0.60156 0-1.0259-0.41357-0.42431-0.41357-0.42431-0.99902zm0.62842 0q0 0.33838 0.2417 0.58008 0.24169 0.2417 0.58007 0.2417t0.58008-0.2417 0.2417-0.58008-0.2417-0.58008-0.58008-0.2417-0.58007 0.2417q-0.2417 0.2417-0.2417 0.58008z"/></g></g><g transform="translate(56.693 74.938)"><g transform="scale(1,-1)" aria-label="ーーあ、くそ。殴り損ねた。"><path d="m9.8936-3.5557h-8.8838v-0.79492h8.8838z"/><path d="m20.894-3.5557h-8.8838v-0.79492h8.8838z"/><path d="m27.387 0.44043-0.14502-0.66064q2.0464-0.021484 3.1528-0.62305 1.1118-0.60693 1.1172-1.7617 0-0.71973-0.54248-1.2354-0.53711-0.51562-1.4717-0.75732-0.70898 1.8208-2.229 3.2227-1.52 1.3965-3.0884 1.3965-0.73047 0-1.1279-0.4082-0.39746-0.41357-0.39746-1.1602 0-1.0527 0.81104-1.9658 0.81641-0.91846 2.1001-1.4287-0.01611-0.41895-0.01611-0.83252 0-0.41895 0.01611-0.81641h-2.6587v-0.70361h2.6963q0.05371-0.80566 0.11816-1.4824l0.83789 0.010742q-0.06982 0.57471-0.13428 1.4395h4.9629v0.70361h-5.0112q-0.0376 0.61768-0.0376 1.1279l0.0054 0.30078q0.84326-0.22021 1.7241-0.22021 1.8423 0.00537 3.0615 0.74658 1.2246 0.74121 1.2246 2.0947 0 1.4556-1.3696 2.2344-1.3643 0.77881-3.459 0.77881zm1.3052-5.1777q-0.2793-0.026855-0.55859-0.026855-0.8916 0-1.7671 0.2793 0.06982 1.4448 0.34912 2.6533 1.2354-1.1064 1.9766-2.9058zm-3.083 0.55322q-0.85938 0.41895-1.52 1.1333-0.65527 0.71436-0.65527 1.3804 0 0.97754 0.80566 0.97754 0.84326 0 1.8369-0.64453-0.34375-1.1709-0.46728-2.8467z"/><path d="m36.287 0.053711-0.73584 0.47266q-0.69824-1.1494-1.6704-2.2881l0.62842-0.44043q1.1763 1.3911 1.7778 2.2559z"/><path d="m52.782-0.064453-0.67139 0.66064q-1.6489-1.5469-3.6738-2.895-0.3706-0.23096-1.0742-0.69287-0.70361-0.46729-0.88623-0.62305-0.17725-0.15576-0.29004-0.35449-0.10742-0.19873-0.10742-0.40283 0-0.50488 0.66064-0.97217 1.9121-1.2246 2.8682-1.9282 0.95606-0.70898 1.896-1.5522l0.66064 0.55322q-1.9229 1.6113-4.4795 3.2334-0.49951 0.28467-0.62305 0.39209-0.12354 0.10742-0.12354 0.25244 0 0.12891 0.0752 0.2041 0.08057 0.075195 0.65527 0.45117 2.1592 1.3965 3.2119 2.1592 1.0527 0.7627 1.9014 1.5146z"/><path d="m63.538-0.38672-0.02148 0.77344q-0.42432 0.021484-0.83789 0.021484-2.1323 0-3.3193-0.65527-1.1816-0.65527-1.1816-1.9443 0-1.1816 0.95606-1.9551-2.1484 0.15039-3.9907 0.42969l-0.06445-0.7627q0.74121-0.04834 1.3696-0.18262 0.63379-0.13428 1.0205-0.2793 0.38672-0.15039 1.606-0.86475 1.2246-0.71436 2.6694-1.8154-1.0635 0.053711-4.2217 0.053711h-1.3105v-0.73584h6.4131l0.47266 0.51562q-0.70361 0.6875-1.9443 1.4878-1.2407 0.80029-2.4868 1.4072l0.02148 0.075195q1.7886-0.16113 4.6299-0.16113 0.61768 0 1.1978 0.00537l-0.01074 0.7627q-1.0742-0.042969-2.1646-0.042969-1.0742 0-2.0464 0.037598-1.2891 0.71436-1.2891 2.0034 0 1.8584 3.6523 1.8584 0.42969 0 0.88086-0.032227z"/><path d="m65.824-0.95605q0-0.58545 0.42432-0.99902t1.0259-0.41357q0.60156 0 1.0259 0.41357 0.42432 0.41357 0.42432 0.99902 0 0.58545-0.42432 0.99902-0.42432 0.41357-1.0259 0.41357-0.60156 0-1.0259-0.41357t-0.42432-0.99902zm0.62842 0q0 0.33838 0.2417 0.58008t0.58008 0.2417 0.58008-0.2417 0.2417-0.58008-0.2417-0.58008-0.58008-0.2417-0.58008 0.2417-0.2417 0.58008z"/><path d="m86.535-5.8867q0 0.26318-0.23096 0.47266t-0.92383 0.20947q-0.81104 0-1.0527-0.20947-0.23633-0.21484-0.23633-0.4834v-2.2773h-1.563v0.33301q0 1.9336-1.144 3.0347l-0.47266-0.44043q0.81104-0.94531 0.81104-2.4546v-1.1011h3.1528v2.5996q0 0.29004 0.30078 0.32764h0.33838q0.2417 0 0.32227-0.19336 0.08057-0.19336 0.08057-1.0044l0.61768 0.085937zm-9.0986 4.9253h3.6792v0.66064h-3.6792v0.51562h-0.78418v-8.9429h4.4097v0.62842h-3.6255zm2.272-2.8306q-0.70898 1.5039-1.4878 2.3364l-0.50488-0.40283q0.83252-1.0796 1.5039-2.6748-0.97217-1.4556-1.4019-1.9604l0.54785-0.39209q0.4834 0.56396 1.1655 1.5254 0.34375-1.0312 0.61768-2.3096l0.77881 0.14502q-0.22559 1.2891-0.87012 2.9272 0.68213 0.99902 1.1387 1.7295l-0.63916 0.46191q-0.30078-0.53711-0.84863-1.3857zm4.7373 2.6694q0.91309 0.66602 2.0894 1.0581l-0.46191 0.67139q-1.1816-0.39209-2.229-1.2354-1.3481 0.98291-2.75 1.3159l-0.2793-0.60693q1.4287-0.39209 2.4814-1.1978-1.23-1.2139-1.4771-2.6157h-0.53711v-0.63916h4.6567q-0.0752 1.8477-1.4932 3.2495zm-0.58008-0.48877q0.98291-0.95605 1.1548-2.1216h-2.4438q0.30078 1.1763 1.2891 2.1216z"/><path d="m90.762 0.61768-0.19873-0.70361q2.3096-0.18262 3.5342-1.0259 1.2246-0.84326 1.2246-3.1045-0.0054-1.5845-0.49414-2.4224-0.4834-0.84326-1.2944-0.84326-0.76807 0.00537-1.5845 0.50488-0.81104 0.49414-1.3804 1.6704-0.56934 1.1763-0.56396 2.9058l-0.7627 0.04834q-0.19873-1.2354-0.19873-2.7769 0-1.9712 0.31152-3.5933l0.84863 0.075195q-0.35986 1.9443-0.42969 3.5771h0.07519q0.39209-1.4609 1.4395-2.2935 1.0527-0.83789 2.2183-0.84326 1.2407 0 1.9604 1.042t0.71973 2.9917q0 2.5137-1.375 3.5771-1.375 1.0635-4.0498 1.2139z"/><path d="m101.69-4.0015q-0.3706 0.16113-1.1226 0.38672v3.4858q0 0.34375-0.27393 0.55322-0.27393 0.20947-0.57471 0.20947h-1.2354l-0.10205-0.70361h0.9668q0.39209 0 0.39209-0.37061v-2.9434q-0.90772 0.2417-1.4824 0.35986l-0.12354-0.73047q0.51025-0.075195 1.606-0.34912v-2.3203h-1.4717v-0.6499h1.4717v-1.9766h0.82715v1.9766h1.0366v0.6499h-1.0366v2.1055l1.0688-0.29541zm5.8008-2.6694h-4.9897v-2.0947h4.9897zm-0.77343-0.54785v-1.0205h-3.4536v1.0205zm1.1333 6.0049h-5.645v-4.7695h5.645zm-0.80567-4.2217h-4.0605v0.80566h4.0605zm0 2.186v-0.82715h-4.0605v0.82715zm0 1.4395v-0.88623h-4.0605v0.88623zm1.7026 1.8154-0.43506 0.62842q-1.23-0.41895-2.4009-1.1978l0.49414-0.50488q1.2139 0.73047 2.3418 1.0742zm-4.6299-0.51562q-0.47266 0.32764-1.2515 0.67676-0.77343 0.35449-1.332 0.47803l-0.29004-0.59082q1.4448-0.42969 2.3687-1.1118z"/><path d="m111.47-3.5127q-0.5962 0.89697-1.8477 2.6533l-0.55859-0.54785q0.42431-0.4834 0.87011-1.1064 0.45117-0.62305 0.82178-1.2246 0.37598-0.60693 0.51025-0.8916 0.13965-0.28467 0.17725-0.46191 0.043-0.18262 0.043-0.51025 0-0.2793-0.0161-0.74658h-1.9443v-0.70361h1.9443v-1.7456h0.8164v3.2012q0.89697-0.9668 1.9766-1.5308 1.085-0.56396 2.1162-0.56396 1.1655 0.00537 1.7671 0.99365 0.60157 0.98291 0.60157 2.7393 0 1.2246-0.21485 2.1001 0.5962 0.41895 1.2783 1.0635l-0.50488 0.62842q-0.45117-0.42432-1.0474-0.90771-0.67676 1.4395-2.3955 1.4395-0.73047 0-1.3052-0.44043-0.56933-0.4458-0.56933-1.1011 0-0.73584 0.56396-1.1655 0.56934-0.43506 1.4287-0.43506 0.87012 0 1.7832 0.45654 0.10742-0.6499 0.10742-1.4395 0-3.2173-1.4932-3.2173-0.93995 0-2.0679 0.6875-1.1279 0.68213-2.0249 1.7026v4.9844h-0.8164zm6.0854 1.9604q-0.78955-0.53174-1.5308-0.53174-0.55322 0-0.91845 0.23096-0.36524 0.22559-0.36524 0.64453-5e-3 0.40283 0.33301 0.63916 0.34375 0.23096 0.83789 0.23096 1.1709 0 1.6436-1.2139z"/><path d="m123.74-8.7656q0 0.60156-0.0537 1.4395h3.9048v0.71436h-3.9639q-0.19336 2.0679-0.91309 4.0874-0.71972 2.0195-1.4609 2.9219l-0.63916-0.41895q0.77881-1.1064 1.3965-2.9648 0.62305-1.8638 0.76807-3.6255h-1.9551v-0.71436h2.0034q0.0322-0.69287 0.0322-1.4395zm6.1284 3.1797-0.0107 0.70361q-0.26318-0.010742-0.4834-0.010742-1.9228 0-4.227 0.22021l-0.0537-0.70898q2.1001-0.22021 4.1518-0.22021 0.35987 0 0.62305 0.016113zm0.3169 5.5859q-0.85401 0.14502-2.3096 0.14502-1.23 0-1.9336-0.10205-0.69824-0.10205-1.1011-0.46729-0.40283-0.36523-0.40283-0.8916 0-0.7627 0.6123-1.4448l0.60156 0.33838q-0.39209 0.52637-0.39209 1.0151-5e-3 0.33301 0.35987 0.57471 0.3706 0.2417 2.0625 0.2417 1.2891 0 2.46-0.14502z"/><path d="m131.82-0.95605q0-0.58545 0.42432-0.99902 0.42431-0.41357 1.0259-0.41357 0.60156 0 1.0259 0.41357 0.42431 0.41357 0.42431 0.99902 0 0.58545-0.42431 0.99902-0.42432 0.41357-1.0259 0.41357-0.60157 0-1.0259-0.41357-0.42432-0.41357-0.42432-0.99902zm0.62842 0q0 0.33838 0.2417 0.58008t0.58008 0.2417 0.58008-0.2417q0.24169-0.2417 0.24169-0.58008t-0.24169-0.58008q-0.2417-0.2417-0.58008-0.2417t-0.58008 0.2417-0.2417 0.58008z"/></g></g></g></g></svg>
