<?xml version="1.0" encoding="UTF-8"?>
<svg width="642.52" height="257.59" overflow="hidden" version="1.1" xmlns="http://www.w3.org/2000/svg">
 <defs>
  <clipPath id="clip0">
   <rect x="1072" y="1096" width="2176" height="908"/>
  </clipPath>
 </defs>
 <g transform="matrix(.30293 0 0 .30293 -341.4 -332.22)" clip-path="url(#clip0)">
  <g fill="#ececec" fill-rule="evenodd">
   <path d="m1389 1309v-161l136 161z"/>
   <path d="m1901.8 1240 58.49-78.85 32.54 146.39z"/>
   <path d="m1633.9 1374.4 156.1 40.77-180.53 52.82z"/>
   <path d="m2070 1507h90l-90 117z"/>
   <path d="m2307.4 1206.6 153.38 50.04-203.29 102.96z"/>
   <path d="m2666.6 1416.6 153.38 50.03-209.98 123.47z"/>
   <path d="m2537.8 1214.7 110.01-118.01-10.4 210.86z"/>
   <path d="m1302 1389.8 67.5 146.53-191.19-89.56z"/>
   <path d="m3133.6 1305.9 85.23 185-243.13-112.26z"/>
  </g>
  <g transform="translate(1425.5 1405)" aria-label="アサルトリリィA Thousand Knights">
   <path d="m183.91-162.42q13.75 10.312 21.484 18.906 6.875 9.4531-9.4531 6.875-49.844 30.937-73.906 39.531-12.031 80.781-79.922 111.72-2.5781 0-0.85938-2.5781 57.578-43.828 59.297-119.45-2.5781-2.5781-6.875-5.1562-2.5781-1.7188 0.85938-4.2969 3.4375-2.5781 6.875-2.5781 13.75 4.2969 22.344 12.891 21.484-14.609 42.969-36.953-72.188 6.0156-94.531 10.312-6.0156 0.85937-21.484 5.1562-5.1562 6.0156-11.172 0.85937-13.75-10.312-18.047-18.047-1.7188-1.7188 0-7.7344 2.5781-6.0156 4.2969-1.7188 2.5781 4.2969 6.0156 6.0156 4.2969 1.7188 8.5938 1.7188 24.922-2.5781 136.64-11.172z"/>
   <path d="m347.19-176.17q4.2969 0.85937 10.312 3.4375 12.031 5.1562 16.328 8.5938 4.2969 5.1562-3.4375 7.7344 0 20.625 0 40.391 12.031-0.85937 29.219-2.5781 4.2969-5.1562 5.1562-4.2969 20.625 7.7344 22.344 11.172 3.4375 6.875-4.2969 11.172-5.1562 0-7.7344 0-17.188-0.85937-44.688 0 0 82.5-73.906 116.88-4.2969 0-1.7188-3.4375 57.578-39.531 57.578-113.44-18.047 0-48.125 3.4375 0.85937 27.5 0.85937 48.984 0 4.2969-4.2969 4.2969-6.875 0-12.891-6.875-1.7188-1.7188 0-7.7344 0.85938-13.75 0.85938-36.094-9.4531 0.85938-20.625 3.4375-5.1562 0.85938-10.312 4.2969-3.4375 2.5781-8.5938-0.85938-6.875-5.1562-13.75-12.031-2.5781-3.4375-0.85938-10.312 1.7188-4.2969 4.2969-0.85938 3.4375 4.2969 9.4531 5.1562 12.891 0 39.531-3.4375 0-16.328-1.7188-32.656 0-6.875-9.4531-9.4531-3.4375-0.85937-0.85938-3.4375 4.2969-4.2969 6.875-5.1562 2.5781-0.85937 8.5938 1.7188 6.875 3.4375 15.469 7.7344 4.2969 4.2969-2.5781 8.5938v30.937q24.062-1.7188 48.125-3.4375 0-16.328-0.85938-43.828 0-6.0156-11.172-9.4531-3.4375 0-1.7188-2.5781 6.0156-6.875 8.5938-6.0156z"/>
   <path d="m503.59-128.91q16.328 6.0156 28.359 13.75 3.4375 6.875-6.0156 7.7344-13.75 74.766-64.453 105.7-3.4375 0.85938-2.5781-2.5781 41.25-42.969 45.547-110 0-5.1562-9.4531-6.875-4.2969-1.7188-1.7188-4.2969 4.2969-6.0156 10.312-3.4375zm46.406-19.766q10.312 3.4375 19.766 8.5938 9.4531 6.0156-1.7188 11.172-1.7188 6.875-2.5781 27.5-1.7188 36.094-1.7188 66.172 43.828-21.484 89.375-62.734 5.1562-1.7188 3.4375 3.4375-38.672 49.844-93.672 83.359-0.85937 10.312-6.875 6.0156-9.4531-8.5938-12.891-15.469-2.5781-3.4375 4.2969-5.1562 0-91.953 0-108.28 0-6.0156-10.312-7.7344-2.5781 0-0.85937-4.2969 3.4375-4.2969 6.0156-4.2969 3.4375 0 7.7344 1.7188z"/>
   <path d="m744.22-175.31q14.609 4.2969 26.641 14.609 4.2969 5.1562-5.1562 8.5938-0.85937 19.766-1.7188 50.703 49.844 4.2969 68.75 23.203 8.5938 8.5938 8.5938 15.469 0 11.172-9.4531 11.172-6.0156 0-14.609-9.4531-27.5-27.5-53.281-33.516 1.7188 44.688 3.4375 103.98 0.85938 8.5938-4.2969 8.5938-6.0156-0.85938-11.172-4.2969-9.4531-6.0156-7.7344-10.312 0.85937-6.0156 2.5781-17.188 0.85938-67.031-0.85937-143.52 0-6.875-11.172-10.312-4.2969 0-1.7188-3.4375 6.0156-5.1562 11.172-4.2969z"/>
   <path d="m1008-173.59q13.75 1.7188 30.938 12.031 4.2969 5.1562-4.2969 9.4531v65.312q0 77.344-93.672 103.98-3.4375-1.7188-0.85937-4.2969 74.766-33.516 74.766-103.12v-34.375q0-16.328-0.8594-30.937-0.8594-8.5938-12.031-9.4531-2.5781 0-0.8593-2.5781 4.2968-6.0156 6.875-6.0156zm-58.438 16.328q7.7344 2.5781 13.75 6.875 4.2969 4.2969-2.5781 7.7344 1.7188 54.141 1.7188 82.5 0 4.2969-3.4375 6.0156-5.1562 2.5781-12.891-4.2969-6.0156-6.875-6.0156-11.172 0-2.5781 1.7188-6.875 0-43.828-2.5781-70.469 0-3.4375-6.875-5.1562-4.2969 0-1.7188-4.2969 1.7188-3.4375 6.0156-3.4375 5.1562 0 12.891 2.5781z"/>
   <path d="m1228-173.59q13.75 1.7188 30.938 12.031 4.2969 5.1562-4.2969 9.4531v65.312q0 77.344-93.672 103.98-3.4375-1.7188-0.8593-4.2969 74.766-33.516 74.766-103.12v-34.375q0-16.328-0.8594-30.937-0.8594-8.5938-12.031-9.4531-2.5782 0-0.8594-2.5781 4.2969-6.0156 6.875-6.0156zm-58.438 16.328q7.7344 2.5781 13.75 6.875 4.2969 4.2969-2.5781 7.7344 1.7187 54.141 1.7187 82.5 0 4.2969-3.4375 6.0156-5.1562 2.5781-12.891-4.2969-6.0156-6.875-6.0156-11.172 0-2.5781 1.7187-6.875 0-43.828-2.5781-70.469 0-3.4375-6.875-5.1562-4.2969 0-1.7188-4.2969 1.7188-3.4375 6.0157-3.4375 5.1562 0 12.891 2.5781z"/>
   <path d="m1455.8-133.2q3.4375-1.7188 9.4531 1.7188 7.7344 5.1562 14.609 12.031 4.2968 5.1562-3.4375 6.875-21.484 24.922-37.812 38.672 16.328 6.0156 6.0156 10.312v47.266q0 14.609 0.8594 29.219 0 6.0156-6.0157 6.0156-3.4375 0-6.875-2.5781-5.1562-3.4375-5.1562-6.0156 1.7187-8.5938 1.7187-18.047v-57.578q-36.953 27.5-73.906 39.531-3.4375 0-0.8594-2.5781 67.031-39.531 99.688-89.375 3.4375-5.1562 3.4375-7.7344t-3.4375-3.4375q-2.5781-0.85937 1.7188-4.2969z"/>
   <path d="m-135.9 255v-5.2637q5.3711-1.0742 7.9492-2.3633 2.6856-1.2891 3.9746-3.5449 1.2891-2.3633 1.2891-6.2305 0-3.6524-0.85938-7.8418-0.85937-4.2969-2.4707-9.5606l-3.9746-13.857h-50.059l-3.6523 10.527q-2.793 7.9492-3.6523 12.031-0.85938 4.082-0.85938 7.4121 0 6.4453 3.2227 9.4531 3.3301 3.0078 10.098 3.9746v5.2637h-45.869v-5.2637q6.0156-0.9668 10.42-6.9824 4.5117-6.0156 8.7012-17.188l44.795-118.92h16.973l36.523 119.78q2.5781 8.3789 4.5117 12.783 2.041 4.4043 4.834 6.875 2.793 2.4707 7.627 3.6524v5.2637zm-41.25-58.008h44.902l-20.41-69.287z"/>
   <path d="m-28.797 108.37h116.23v37.383h-10.527q-2.3633-9.2383-4.7266-14.609-2.2559-5.3711-4.834-8.1641-2.5781-2.793-5.5859-3.9746-2.9004-1.1816-8.8086-1.1816h-13.643v110q0 6.3379 0.64453 10.098 0.75195 3.7598 2.1484 6.0156 1.5039 2.1484 3.9746 3.4375 2.4707 1.1816 7.7344 2.3633v5.2637h-49.092v-5.2637q3.2227-0.75196 5.6934-1.6113 2.4707-0.85938 3.9746-2.041 1.6113-1.2891 2.5781-3.2226 1.0742-1.9336 1.6113-5.2637 0.64453-3.3301 0.64453-9.7754v-110h-13.535q-5.0488 0-8.3789 0.96679-3.2227 0.9668-6.0156 4.082-2.793 3.0078-5.1562 8.7012-2.2559 5.5859-4.2969 14.18h-10.635z"/>
   <path d="m133.73 169.17 0.42969 0.10742q8.3789-8.4863 13.213-11.816 4.9414-3.4375 9.668-5.1562 4.834-1.7188 10.312-1.7188 5.9082 0 10.527 1.3965 4.6191 1.3965 8.0566 4.2969 3.5449 2.793 5.6934 6.9824 2.2559 4.082 3.3301 9.8828 1.0742 5.6934 1.0742 14.502v40.498q0 9.3457 0.75195 12.783 0.85938 3.3301 2.9004 5.2637 2.1484 1.8262 8.4863 3.5449v5.2637h-42.324v-5.2637q4.1895-1.2891 6.0156-2.2559t3.0078-2.6856q1.2891-1.7188 1.9336-5.2637 0.75196-3.6523 0.75196-10.957v-28.145q0-14.287-1.5039-21.807-1.3965-7.627-5.6934-11.387-4.1894-3.7598-11.816-3.7598-4.2969 0-7.7344 1.5039-3.4375 1.5039-7.9492 5.3711t-6.875 7.9492q-2.2559 4.082-2.2559 8.7012v41.143q0 7.3047 0.32227 10.42 0.42968 3.1152 1.5039 5.2637 1.0742 2.041 3.2227 3.4375 2.2559 1.2891 6.875 2.4707v5.2637h-42.539v-5.2637q4.7266-1.2891 6.7676-2.4707 2.041-1.1816 3.1152-3.0078 1.1816-1.8262 1.7188-5.2637t0.53711-10.85v-89.912q0-10.312-0.21484-14.395-0.10743-4.082-0.85938-6.875-0.64453-2.9004-1.9336-4.5117-1.1816-1.6113-3.3301-2.5781-2.041-0.9668-7.5195-1.9336v-5.5859l25.889-1.0742h6.4453z"/>
   <path d="m273.06 256.72q-22.344 0-34.16-13.105-11.709-13.213-11.709-38.994 0-17.725 6.123-29.971 6.2305-12.246 16.973-18.154 10.742-6.0156 24.492-6.0156 22.988 0 34.805 13.428 11.816 13.32 11.816 38.35 0 17.832-5.9082 30.078-5.9082 12.246-16.758 18.369-10.85 6.0156-25.674 6.0156zm-25.566-54.355q0 22.129 6.9824 34.053 7.0898 11.816 20.195 11.816 7.1973 0 12.246-3.4375 5.0488-3.5449 8.1641-9.4531 3.2226-5.9082 4.6191-13.643 1.3965-7.8418 1.3965-16.328 0-15.791-3.5449-26.211-3.4375-10.42-9.4531-15.254-6.0156-4.9414-13.75-4.9414-12.998 0-19.98 11.279-6.875 11.279-6.875 32.119z"/>
   <path d="m340.52 152.3h30.615v54.678q0 12.568 0.96679 19.121 0.9668 6.5527 2.9004 9.8828 1.9336 3.3301 5.4785 5.5859 3.5449 2.2558 9.7754 2.2558 4.082 0 7.8418-1.6113 3.7598-1.6113 8.3789-5.5859 4.6191-4.082 6.5527-8.0566 2.041-3.9746 2.041-9.2383v-40.283q0-6.123-0.32226-9.2383-0.32227-3.1152-1.0742-4.9414-0.75196-1.9336-1.8262-3.1152-0.9668-1.1816-2.9004-2.1484-1.8262-0.96679-6.0156-2.041v-5.2637h30.615v73.369q0 8.2715 0.32227 11.924 0.32227 3.6523 1.3965 5.8008 1.0742 2.1484 3.3301 3.5449 2.2559 1.2891 8.0566 2.4707v5.5859l-24.6 1.0742h-6.5527l0.64453-17.617-1.6113-0.42969q-8.916 9.668-17.08 14.18-8.0566 4.5117-16.221 4.5117-9.7754 0-16.113-3.8672t-9.4531-11.494q-3.1152-7.7344-3.1152-21.699v-40.605q0-9.0234-0.75195-12.354-0.64453-3.4375-2.6856-5.3711-1.9336-2.041-8.5938-3.7598z"/>
   <path d="m536.56 175.83h-10.312q-2.3633-6.4453-5.5859-10.098-3.2227-3.7598-7.3047-5.2637t-9.9902-1.5039q-8.5938 0-13.75 4.082-5.0488 3.9746-5.0488 10.957 0 4.9414 2.041 8.1641 2.041 3.2226 6.3379 6.0156 4.2969 2.793 15.146 7.4121 10.957 4.7266 16.865 8.7012 6.0156 3.9746 9.3457 9.2383 3.4375 5.2637 3.4375 12.568 0 8.4863-2.9004 14.287-2.9004 5.8008-8.1641 9.4531t-12.568 5.2637q-7.1973 1.6113-15.791 1.6113-9.0234 0-17.51-1.3965-8.4863-1.2891-16.543-3.4375v-22.451h10.527q2.9004 9.8828 8.5938 14.395 5.6934 4.4043 15.684 4.4043 3.8672 0 7.5195-0.75195 3.7598-0.85938 6.6602-2.6856 2.9004-1.9336 4.6191-5.1562 1.7188-3.2226 1.7188-8.0566 0-5.4785-2.1484-8.916t-6.6602-6.2305q-4.5117-2.9004-15.898-7.7344-9.7754-4.082-15.684-7.9492-5.9082-3.8672-9.3457-9.1309-3.3301-5.2637-3.3301-12.461 0-8.8086 4.7266-15.254 4.834-6.5527 13.857-9.9902 9.0234-3.4375 21.162-3.4375 7.0898 0 13.643 0.75195 6.6602 0.64453 16.65 2.6856z"/>
   <path d="m621.21 239.64-1.6113-0.42969q-9.3457 9.5606-17.617 13.535-8.1641 3.9746-17.402 3.9746-8.1641 0-14.395-3.1152-6.2305-3.2227-9.5606-8.916-3.3301-5.8008-3.3301-13.32 0-15.684 15.469-24.17 15.576-8.5938 46.621-9.9902v-6.9824q0-11.172-2.1484-17.617t-6.7676-9.4531q-4.6191-3.0078-12.354-3.0078-8.3789 0-13.535 4.4043-5.0488 4.4043-7.627 13.213h-14.072v-13.965q10.312-5.3711 17.188-7.8418 6.875-2.5781 13.75-3.9746 6.875-1.5039 13.965-1.5039 10.635 0 17.08 3.4375 6.4453 3.3301 9.668 10.312 3.2227 6.9824 3.2227 21.055v37.383q0 7.9492 0.10742 11.279 0.10742 3.2227 0.64453 6.0156t1.6113 4.5117q1.0742 1.6113 3.1152 2.793 2.1484 1.1816 6.875 2.4707v5.2637h-29.434zm-1.8262-33.623q-21.807 0.21485-32.656 5.8008-10.85 5.5859-10.85 16.865 0 6.123 2.4707 9.668 2.4707 3.5449 6.2305 4.9414 3.7598 1.2891 8.916 1.2891 7.3047 0 13.213-3.5449 6.0156-3.5449 9.3457-9.0234 3.3301-5.4785 3.3301-10.85z"/>
   <path d="m771.17 255h-42.324v-5.2637q4.1894-1.2891 6.0156-2.2559 1.8262-0.9668 3.0078-2.6856 1.2891-1.7188 1.9336-5.2637 0.75195-3.6523 0.75195-10.957v-28.145q0-7.5195-0.42968-13.643-0.42969-6.123-1.5039-9.9902-0.9668-3.9746-2.4707-6.123-1.3965-2.2559-3.4375-3.7598-1.9336-1.6113-4.5117-2.4707-2.5781-0.9668-6.7676-0.9668t-7.9492 1.7188q-3.7598 1.6113-8.2715 5.6934t-6.5527 8.0566q-2.041 3.9746-2.041 9.1309v40.068q0 9.2383 0.85937 12.891 0.85938 3.5449 3.2227 5.4785 2.4707 1.8262 7.9492 3.2227v5.2637h-42.109v-5.2637q4.1894-1.2891 5.9082-2.2559 1.8262-0.9668 3.0078-2.6856 1.2891-1.7188 1.9336-5.2637 0.75195-3.5449 0.75195-11.064v-46.836q0-6.875-0.21484-11.064-0.21484-4.1895-1.5039-6.6602-1.2891-2.5781-3.9746-3.7598-2.5781-1.2891-7.4121-2.1484v-5.6934l25.137-0.9668h6.5527l-1.1816 17.51 1.5039 0.42968q7.9492-8.0566 12.783-11.494 4.9414-3.4375 9.8828-5.2637 5.0488-1.9336 10.635-1.9336 5.8008 0 10.312 1.3965 4.6191 1.2891 8.0566 4.082 3.5449 2.793 5.8008 6.9824 2.2559 4.082 3.3301 9.8828 1.1816 5.8008 1.1816 14.717v40.498q0 7.4121 0.42968 10.742 0.42969 3.3301 1.5039 5.1562t3.1152 3.1152q2.041 1.1816 7.0898 2.5781z"/>
   <path d="m861.84 138.23q0-10.312-0.21484-14.395-0.10743-4.082-0.85938-6.875-0.64453-2.9004-1.9336-4.5117-1.1816-1.6113-3.3301-2.5781-2.041-0.9668-7.5195-1.9336v-5.5859l25.996-1.0742h6.3379v124.39q0 8.3789 0.32227 12.031 0.32226 3.5449 1.3965 5.6934 1.0742 2.1484 3.3301 3.5449 2.3633 1.2891 8.1641 2.4707v5.5859l-25.352 1.0742h-6.4453l1.2891-17.617-1.6113-0.42969q-6.7676 7.1973-11.816 10.85-4.9414 3.5449-10.635 5.6934-5.5859 2.1484-12.031 2.1484-17.617 0-27.178-13.32-9.5606-13.428-9.5606-38.672 0-17.617 6.2305-29.863 6.2305-12.354 16.758-18.369 10.635-6.0156 23.848-6.0156 7.0898 0 12.891 1.1816 5.8008 1.0742 11.924 3.6523zm0 53.066q0-8.3789-0.75195-13.428-0.75196-5.0488-2.5781-8.4863-1.7188-3.4375-4.7266-5.8008-3.0078-2.3633-6.6602-3.4375-3.5449-1.0742-8.5938-1.0742-13.75 0-20.947 11.064-7.1973 10.957-7.1973 31.582t5.9082 31.367q5.9082 10.742 17.939 10.742 4.7266 0 7.8418-0.75195 3.1152-0.85937 6.123-2.5781 3.0078-1.8262 6.123-4.9414 3.1152-3.1152 4.5117-5.6934 1.5039-2.5781 2.2559-5.9082 0.75195-3.3301 0.75195-8.5938z"/>
   <path d="m994.93 174.65h3.2227q4.0821 0 7.4121-1.2891 3.4375-1.2891 7.627-4.834t12.783-13.213q10.312-11.494 14.072-16.65 4.7265-6.123 6.3379-10.312 1.289-3.1152 1.289-6.0156 0-4.2969-2.4707-6.2305-2.4707-2.041-6.7676-2.4707v-5.2637h46.836v5.2637q-3.4375 0.75196-6.7676 2.6856-3.3301 1.8262-6.875 5.1562-3.4375 3.2227-10.205 10.742l-36.094 40.605 39.102 56.826q6.2305 9.0234 9.7754 12.676 3.5449 3.5449 6.7676 5.2637 3.2227 1.6113 6.875 2.1484v5.2637h-47.373v-5.2637q3.9746-0.32227 5.8007-1.5039 1.8262-1.1816 1.8262-3.5449 0-1.9336-1.2891-4.6191-1.1816-2.793-3.8671-6.6602l-25.029-37.275q-4.4043-6.6602-6.4453-8.8086-2.0411-2.1484-4.4043-3.1152-2.3633-1.0742-6.3379-1.0742h-5.6934v45.01q0 7.1973 0.42968 10.527 0.53711 3.3301 1.6113 5.2637 1.1816 1.9336 3.3301 3.2226 2.2559 1.2891 7.1973 2.5781v5.2637h-45.225v-5.2637q6.6602-1.7188 8.916-3.7598 2.2559-2.1484 2.9004-6.0156 0.75195-3.8672 0.75195-11.816v-92.92q0-7.4121-0.5371-10.742-0.53711-3.4375-1.8262-5.2637-1.1816-1.9336-3.2226-3.0078-2.041-1.1816-6.9824-2.5781v-5.2637h45.225v5.2637q-4.7266 1.1816-6.875 2.3633-2.041 1.1816-3.3301 3.0078-1.1816 1.7188-1.8262 5.2637-0.5371 3.5449-0.5371 10.957z"/>
   <path d="m1202.9 255h-42.324v-5.2637q4.1895-1.2891 6.0156-2.2559 1.8262-0.9668 3.0079-2.6856 1.289-1.7188 1.9335-5.2637 0.752-3.6523 0.752-10.957v-28.145q0-7.5195-0.4297-13.643t-1.5039-9.9902q-0.9668-3.9746-2.4707-6.123-1.3965-2.2559-3.4375-3.7598-1.9336-1.6113-4.5117-2.4707-2.5781-0.9668-6.7676-0.9668-4.1894 0-7.9492 1.7188-3.7598 1.6113-8.2715 5.6934t-6.5527 8.0566-2.041 9.1309v40.068q0 9.2383 0.8593 12.891 0.8594 3.5449 3.2227 5.4785 2.4707 1.8262 7.9492 3.2227v5.2637h-42.109v-5.2637q4.1895-1.2891 5.9082-2.2559 1.8262-0.9668 3.0078-2.6856 1.2891-1.7188 1.9336-5.2637 0.752-3.5449 0.752-11.064v-46.836q0-6.875-0.2149-11.064-0.2148-4.1895-1.5039-6.6602-1.289-2.5781-3.9746-3.7598-2.5781-1.2891-7.4121-2.1484v-5.6934l25.137-0.9668h6.5528l-1.1817 17.51 1.5039 0.42968q7.9493-8.0566 12.783-11.494 4.9414-3.4375 9.8829-5.2637 5.0488-1.9336 10.635-1.9336 5.8008 0 10.312 1.3965 4.6192 1.2891 8.0567 4.082 3.5449 2.793 5.8007 6.9824 2.2559 4.082 3.3301 9.8828 1.1817 5.8008 1.1817 14.717v40.498q0 7.4121 0.4296 10.742 0.4297 3.3301 1.504 5.1562 1.0742 1.8262 3.1152 3.1152 2.041 1.1816 7.0898 2.5781z"/>
   <path d="m1251.8 110.2v20.84h-19.766v-20.84zm-30.723 139.54q4.1895-1.2891 5.9082-2.2559 1.8262-0.9668 3.0078-2.6856 1.2891-1.7188 1.9336-5.2637 0.752-3.5449 0.752-11.064v-46.836q0-6.875-0.2149-11.064-0.2148-4.1895-1.5039-6.6602-1.289-2.5781-3.9746-3.7598-2.5781-1.2891-7.4121-2.1484v-5.6934l25.029-0.9668h6.5528v76.807q0 9.2383 0.8593 12.891 0.8594 3.5449 3.2227 5.4785 2.4707 1.8262 7.9492 3.2227v5.2637h-42.109z"/>
   <path d="m1378.5 163.15-19.873-0.75196-0.9668 1.1816q3.33 3.3301 5.2636 9.1309 1.9336 5.6934 1.9336 12.354 0 17.51-10.85 27.07-10.742 9.4531-30.615 9.4531-8.916 0-15.361-2.2559-8.164 6.2305-8.164 12.246 0 3.9746 1.5039 6.0156 1.6113 2.041 5.1562 2.9004 3.6524 0.85937 10.957 0.85937h25.781q11.387 0 18.584 3.5449 7.1973 3.5449 10.205 9.5606 3.1152 5.9082 3.1152 13.857 0 10.098-5.8008 17.939-5.8007 7.9492-16.758 12.354-10.957 4.4043-25.566 4.4043-10.85 0-19.873-1.2891-8.916-1.2891-15.361-4.4043-6.3378-3.0078-9.8828-8.0566-3.4375-4.9414-3.4375-12.461 0-6.7676 4.5118-12.354 4.5117-5.4785 12.783-9.668-5.0489-2.041-7.9493-6.0156t-2.9004-9.3457q0-6.123 3.4375-11.172 3.4375-5.1562 12.139-11.709-7.7344-4.5117-11.816-12.246-3.9746-7.7344-3.9746-17.617 0-9.2383 3.0078-16.006 3.1152-6.875 8.4863-11.279 5.4786-4.5117 12.891-6.6602 7.4121-2.2558 16.006-2.2558 7.7344 0 15.361 1.8262h38.027zm-74.551 21.807q0 13.428 5.4785 20.732t15.791 7.3047q5.4786 0 9.3458-2.041 3.8671-2.1484 6.2304-5.8008 2.4707-3.6523 3.5449-8.3789 1.1817-4.834 1.1817-10.098 0-9.4531-2.6856-15.791-2.6855-6.3379-7.3047-9.2383-4.6191-3.0078-10.635-3.0078-10.205 0-15.576 6.7676-5.3711 6.7676-5.3711 19.551zm2.6856 71.758q-5.4786 4.082-8.2715 8.5938-2.6856 4.6191-2.6856 10.42 0 9.668 7.627 14.18 7.7344 4.6191 23.525 4.6191 9.6679 0 16.543-2.5781 6.9825-2.5781 10.635-7.4121 3.6524-4.834 3.6524-11.279 0-3.0078-0.752-5.9082-0.752-2.793-2.9004-5.0488-2.041-2.2559-5.9082-3.6524-3.8672-1.2891-10.098-1.2891h-16.006q-8.7012 0-15.361-0.64453z"/>
   <path d="m1418.2 169.17 0.4297 0.10742q8.3789-8.4863 13.213-11.816 4.9415-3.4375 9.668-5.1562 4.834-1.7188 10.312-1.7188 5.9082 0 10.527 1.3965 4.6191 1.3965 8.0566 4.2969 3.5449 2.793 5.6934 6.9824 2.2558 4.082 3.33 9.8828 1.0743 5.6934 1.0743 14.502v40.498q0 9.3457 0.7519 12.783 0.8594 3.3301 2.9004 5.2637 2.1484 1.8262 8.4863 3.5449v5.2637h-42.324v-5.2637q4.1895-1.2891 6.0156-2.2559 1.8262-0.9668 3.0078-2.6856 1.2891-1.7188 1.9336-5.2637 0.752-3.6523 0.752-10.957v-28.145q0-14.287-1.5039-21.807-1.3965-7.627-5.6934-11.387-4.1894-3.7598-11.816-3.7598-4.2969 0-7.7344 1.5039-3.4375 1.5039-7.9492 5.3711t-6.875 7.9492q-2.2558 4.082-2.2558 8.7012v41.143q0 7.3047 0.3222 10.42 0.4297 3.1152 1.5039 5.2637 1.0743 2.041 3.2227 3.4375 2.2559 1.2891 6.875 2.4707v5.2637h-42.539v-5.2637q4.7266-1.2891 6.7676-2.4707 2.041-1.1816 3.1152-3.0078 1.1817-1.8262 1.7188-5.2637t0.5371-10.85v-89.912q0-10.312-0.2148-14.395-0.1075-4.082-0.8594-6.875-0.6445-2.9004-1.9336-4.5117-1.1816-1.6113-3.3301-2.5781-2.041-0.9668-7.5195-1.9336v-5.5859l25.889-1.0742h6.4453z"/>
   <path d="m1504.3 157.68q5.3711-0.85937 8.7012-3.0078t5.1562-5.4785q1.9336-3.4375 3.0078-8.4863 1.0743-5.1562 2.2559-14.932h15.254v26.533h34.697v10.85h-34.697v47.803q0 10.42 0.8594 16.65 0.8594 6.123 3.2226 9.668 2.3633 3.4375 5.3711 4.9414 3.0079 1.5039 7.7344 1.5039 4.2969 0 8.0567-1.7188 3.7597-1.8262 7.4121-5.1562l4.8339 5.8008q-7.6269 7.4121-14.502 10.742-6.7676 3.3301-14.072 3.3301-13.857 0-20.625-8.1641-6.7675-8.2715-6.7675-25.781v-59.619h-15.898z"/>
   <path d="m1657.2 175.83h-10.312q-2.3632-6.4453-5.5859-10.098-3.2227-3.7598-7.3047-5.2637t-9.9902-1.5039q-8.5938 0-13.75 4.082-5.0488 3.9746-5.0488 10.957 0 4.9414 2.041 8.1641 2.041 3.2226 6.3379 6.0156 4.2968 2.793 15.146 7.4121 10.957 4.7266 16.865 8.7012 6.0156 3.9746 9.3457 9.2383 3.4375 5.2637 3.4375 12.568 0 8.4863-2.9004 14.287-2.9004 5.8008-8.1641 9.4531-5.2636 3.6523-12.568 5.2637-7.1973 1.6113-15.791 1.6113-9.0235 0-17.51-1.3965-8.4863-1.2891-16.543-3.4375v-22.451h10.527q2.9004 9.8828 8.5937 14.395 5.6934 4.4043 15.684 4.4043 3.8672 0 7.5195-0.75195 3.7598-0.85938 6.6602-2.6856 2.9004-1.9336 4.6191-5.1562 1.7188-3.2226 1.7188-8.0566 0-5.4785-2.1485-8.916-2.1484-3.4375-6.6601-6.2305-4.5117-2.9004-15.898-7.7344-9.7754-4.082-15.684-7.9492-5.9082-3.8672-9.3457-9.1309-3.3301-5.2637-3.3301-12.461 0-8.8086 4.7265-15.254 4.834-6.5527 13.858-9.9902 9.0234-3.4375 21.162-3.4375 7.0898 0 13.643 0.75195 6.6601 0.64453 16.65 2.6856z"/>
  </g>
  <path d="m1237.5 1420.5h1904.4" fill="none" fill-rule="evenodd" stroke="#000" stroke-miterlimit="8" stroke-width="9.1667"/>
  <path d="m1127 1723h2121v224h-2121z"/>
  <g transform="translate(1967.6 1891)" fill="#fff" aria-label="解説編">
   <path d="m39.047-117.71q9.1875 4.0195-0.57422 7.4648l-3.4453 8.0391h14.355l5.168-7.4648 9.1875 9.1875q5.168 5.7422-4.5938 5.7422l-14.355 17.227h9.7617l5.7422-6.8906 9.7617 9.7617q5.7422 5.7422-2.8711 7.4648v71.777q-0.57422 3.4453-5.7422 6.3164-4.0195 2.2969-6.3164 2.2969-2.8711 0-2.8711-2.2969 0-1.7227 0-3.4453 0-1.7227-2.2969-2.8711-5.7422-2.2969-11.484-4.5938-2.8711-2.2969 0-2.2969 8.6133 0.57422 15.504 0.57422 1.7227 0 1.7227-1.7227v-26.414h-28.137q-2.2969 27.562-22.395 44.789-3.4453 1.7227-1.7227-1.7227 12.633-18.949 12.633-48.809v-33.879q-5.7422 6.8906-9.7617 10.336-4.5938 2.8711-2.2969-1.7227 19.523-30.434 22.395-60.293zm-5.168 18.949q-4.5938 10.336-9.7617 19.523l4.5938 1.7227h10.91q5.7422-11.484 9.1875-21.246zm78.094 31.582q6.8906 2.2969-1.7227 6.3164v13.207h7.4648l9.1875-9.1875 10.91 8.6133q2.2969 2.2969-1.1484 4.0195h-26.414v18.949h11.484l9.1875-9.1875 10.91 8.6133q2.2969 2.2969-1.1484 4.0195h-30.434v31.008l-2.8711 1.7227q-6.8906 3.4453-8.6133-0.57422v-32.156h-26.988v-3.4453h26.988v-18.949h-14.355q-5.168 8.0391-11.484 14.93-4.0195 2.8711-1.7227-1.7227 8.0391-16.652 10.91-35.602l10.91 3.4453q6.3164 2.2969-2.2969 5.7422-1.7227 4.5938-4.5938 9.7617h12.633v-21.246zm26.988-36.176q4.0195 5.168-2.8711 5.7422-2.2969 17.801-8.6133 25.84-4.5938 5.168-9.7617 5.168-1.7226 0-1.7226-2.2969 0-0.57422 0-2.8711 0-1.1484-1.1484-1.7227-7.4648-4.5938-13.207-6.8906-2.8711-2.2969 0.57422-2.2969 6.8906 1.1484 12.633 1.1484t8.0391-6.3164q1.7227-6.3164 1.7227-14.93h-23.543q-1.1484 26.988-29.285 41.344-3.4453 1.1484-1.1484-1.7227 16.652-13.781 17.801-39.621h-20.098v-3.4453h54.551l6.3164-6.8906zm-111.4 70.055h9.1875v-18.949h-9.1875zm0-22.395h9.1875v-18.375h-9.1875zm18.949 22.395h9.1875v-18.949h-9.1875zm0-22.395h9.1875v-18.375h-9.1875z"/>
   <path d="m274.48-109.68q4.0195 2.8711-6.3164 5.7422-9.1875 13.207-18.375 25.266h12.633l6.8906-8.0391 10.91 10.91q4.5938 5.7422-4.0195 7.4648v32.73l-2.8711 1.7227q-6.8906 3.4453-8.6133-0.57422v-7.4648h-6.8906v39.047q0 2.8711 2.8711 2.8711 4.5938 0.57422 12.059 0 3.4453 0 5.168-2.8711 2.8711-6.3164 6.8906-16.078 1.7227-4.0195 1.7227 0l-1.7227 16.652q0 1.1484 1.1484 2.2969 3.4453 2.2969 3.4453 5.7422 0 4.0195-8.0391 5.168-16.078 1.7227-28.137 0-6.8906-0.57422-6.8906-6.8906v-45.938h-5.7422q-1.1484 48.809-43.066 59.719-5.168 0.57422 0-2.2969 30.434-14.355 31.582-57.422h-6.3164v8.6133l-2.8711 1.7227q-6.8906 3.4453-8.6133-0.57422v-52.828l12.633 6.3164h21.82q8.0391-20.098 12.633-40.195zm-57.996-5.168q21.82 10.336 21.82 24.691-0.57422 8.0391-6.8906 8.0391-4.5938 0-5.7422-8.0391-4.0195-17.801-10.91-23.543-2.2969-2.2969 1.7227-1.1484zm-11.484 83.262q4.5938 5.7422-4.0195 7.4648v29.859l-2.8711 1.7227q-6.8906 3.4453-8.6133-0.57422v-8.0391h-18.949v12.633l-2.8711 1.7227q-6.8906 3.4453-8.6133-0.57422v-53.402l12.633 6.3164h15.504l6.8906-8.0391zm-1.1484-20.672q1.7226 1.7227-1.1484 2.8711h-44.215v-3.4453h30.434l6.3164-6.3164zm0-18.949q1.7226 1.7227-1.1484 2.8711h-44.215v-3.4453h30.434l6.3164-6.3164zm6.8906-18.949q2.2969 2.2969-1.1484 4.0195h-57.996v-3.4453h39.047l9.1875-9.1875zm-6.3164-17.801q2.2969 2.2969-1.1484 4.0195h-45.363v-3.4453h26.414l9.1875-9.1875zm-33.879 103.36h18.949v-26.414h-18.949zm52.254-40.77h41.918v-29.859h-41.918z"/>
   <path d="m430.66-84.984q4.5938 5.7422-4.0195 7.4648v18.949l-2.8711 1.7227q-6.8906 3.4453-8.6133-0.57422v-4.5938h-45.363q-0.57421 9.7617-2.2969 15.504h48.809l6.8906-8.0391 10.91 10.91q4.5938 5.7422-4.0195 7.4648v40.77q0 4.5938-6.8906 8.0391-5.168 1.7227-5.7422-0.57422l-1.1484-5.168q-0.57422-2.2969-7.4648-3.4453v6.8906l-2.2969 1.1484q-6.8906 3.4453-7.4648 0v-31.008h-9.1875v28.711l-2.2969 1.1484q-6.8906 3.4453-7.4648 0v-29.859h-9.7617v32.73l-2.2969 1.1484q-6.8906 3.4453-7.4648 0v-37.324q-8.6133 17.227-18.949 25.84-4.0195 2.8711-1.7227-1.1484 17.227-22.395 18.375-63.164v-32.156l10.91 5.7422h43.641l6.8906-8.0391zm-21.82 84.984h7.4648q2.2969 0 2.2969-2.2969v-17.227h-9.7617zm-73.5-113.12q5.168 4.5938-3.4453 5.168-6.8906 7.4648-16.652 16.652 6.3164 5.7422 6.3164 12.059 0 7.4648-6.8906 7.4648-5.7422 0-6.3164-10.336-2.8711-10.336-8.6133-14.355-2.8711-1.7227 0.57422-1.7227 6.8906 1.1484 12.059 4.5938 6.3164-10.91 9.7617-26.414zm14.93 21.246q4.5938 4.0195-4.5938 4.5938-11.484 13.781-27.562 31.582l22.395-1.1484q-1.7227-5.7422-5.168-9.7617-2.2969-2.8711 1.1484-1.7227 17.227 7.4648 17.227 20.672 0 6.8906-5.7422 6.8906-2.8711 0-4.0195-4.0195-1.1484-4.0195-2.2969-8.6133l-10.336 1.7227v63.738l-2.8711 1.7227q-6.8906 3.4453-8.6133-0.57422v-61.441l-10.91 2.2969q-4.0195 8.6133-7.4648 1.1484l-5.168-9.7617 17.801-1.1484q12.059-18.375 23.543-44.789zm-14.355 51.68q13.207 6.8906 13.207 18.375 0 7.4648-5.168 7.4648t-5.168-7.4648q0.57422-9.7617-4.5938-17.227-1.7226-2.8711 1.7227-1.1484zm-21.82 2.8711q6.3164 0 0 6.3164-4.5938 24.691-13.781 39.047-3.4453 4.0195-2.2969-0.57422 6.3164-19.523 5.7422-46.512zm119.44-71.203q2.2969 2.2969-1.1484 4.0195h-83.836v-3.4453h64.887l9.1875-9.1875zm-63.738 43.066h45.363v-18.949h-45.363zm0.57422 42.492h9.7617v-20.098h-9.7617zm19.523 0h9.1875v-20.098h-9.1875zm18.949 0h9.7617v-20.098h-9.7617z"/>
  </g>
 </g>
</svg>
